<svg width="37" height="37" viewBox="0 0 37 37" fill="none" xmlns="http://www.w3.org/2000/svg">
<path d="M9.47097 10.2894L6.33041 10.532C5.45653 10.5995 4.67822 11.0575 4.19494 11.7886L0.573008 17.2665C0.206476 17.8209 0.148207 18.5147 0.417035 19.1224C0.685935 19.7302 1.23853 20.1537 1.8952 20.2554L4.77076 20.7008C5.44343 17.131 7.05371 13.57 9.47097 10.2894Z" fill="#FF0D22"/>
<path d="M16.2988 32.2292L16.7442 35.1048C16.846 35.7614 17.2695 36.314 17.8772 36.5829C18.13 36.6947 18.3976 36.7499 18.6639 36.7499C19.0379 36.7499 19.4094 36.641 19.7331 36.4269L25.2112 32.805C25.9422 32.3217 26.4003 31.5433 26.4677 30.6695L26.7103 27.529C23.4295 29.9463 19.8686 31.5566 16.2988 32.2292Z" fill="#FF0D22"/>
<path d="M15.2174 30.2361C15.3173 30.2361 15.4177 30.2279 15.5178 30.2111C17.0134 29.9611 18.4549 29.5398 19.83 28.9884L8.01132 17.1697C7.45992 18.5448 7.03866 19.9862 6.7886 21.4819C6.69004 22.0715 6.88779 22.6721 7.31039 23.0947L13.905 29.6893C14.2559 30.0402 14.7295 30.2361 15.2174 30.2361Z" fill="#FF0D22"/>
<path d="M33.6094 16.5719C36.5015 10.9805 36.6086 5.07178 36.4575 2.30066C36.4057 1.35116 35.6487 0.594164 34.6992 0.542409C34.2479 0.517771 33.7132 0.5 33.1105 0.5C30.0118 0.5 25.1088 0.969335 20.4279 3.39049C16.708 5.31463 11.83 9.55139 8.95215 15.1193C8.98613 15.1458 9.01934 15.174 9.05063 15.2053L21.7947 27.9493C21.826 27.9806 21.8541 28.0138 21.8806 28.0477C27.4485 25.1698 31.6853 20.2919 33.6094 16.5719ZM21.327 8.16342C23.3972 6.09315 26.766 6.09294 28.8364 8.16342C29.8394 9.1663 30.3917 10.4998 30.3917 11.9182C30.3917 13.3365 29.8394 14.67 28.8364 15.6729C27.8014 16.7079 26.4413 17.2256 25.0817 17.2257C23.7217 17.2258 22.3623 16.7082 21.327 15.6729C20.324 14.67 19.7716 13.3365 19.7716 11.9182C19.7716 10.4998 20.324 9.1663 21.327 8.16342Z" fill="#FF0D22"/>
<path d="M22.8287 14.171C24.0709 15.4132 26.0922 15.4133 27.3344 14.171C27.9362 13.5692 28.2676 12.7691 28.2676 11.9181C28.2676 11.0671 27.9362 10.267 27.3344 9.66531C26.7134 9.04418 25.8975 8.73364 25.0815 8.73364C24.2657 8.73364 23.4498 9.04418 22.8287 9.66531C22.227 10.267 21.8955 11.0671 21.8955 11.9181C21.8955 12.7691 22.2269 13.5693 22.8287 14.171Z" fill="#FF0D22"/>
<path d="M1.33353 30.3734C1.60534 30.3734 1.87714 30.2697 2.08444 30.0623L5.55177 26.5949C5.96652 26.1802 5.96652 25.5078 5.55177 25.093C5.13709 24.6783 4.46463 24.6783 4.04988 25.093L0.582548 28.5604C0.167797 28.9751 0.167797 29.6475 0.582548 30.0623C0.789923 30.2696 1.06173 30.3734 1.33353 30.3734Z" fill="#FF0D22"/>
<path d="M8.73019 28.2706C8.31551 27.8558 7.64304 27.8558 7.22829 28.2706L0.56204 34.9368C0.147289 35.3516 0.147289 36.024 0.56204 36.4387C0.769415 36.6461 1.04122 36.7498 1.31302 36.7498C1.58483 36.7498 1.85663 36.6461 2.06394 36.4387L8.73012 29.7725C9.14494 29.3577 9.14494 28.6853 8.73019 28.2706Z" fill="#FF0D22"/>
<path d="M10.4043 31.4481L6.93704 34.9154C6.52229 35.3302 6.52229 36.0026 6.93704 36.4173C7.14442 36.6247 7.41622 36.7284 7.68795 36.7284C7.95969 36.7284 8.23156 36.6248 8.43887 36.4173L11.9062 32.95C12.3209 32.5352 12.3209 31.8628 11.9062 31.4481C11.4915 31.0333 10.819 31.0333 10.4043 31.4481Z" fill="#FF0D22"/>
</svg>
