<svg width="42" height="42" viewBox="0 0 42 42" fill="none" xmlns="http://www.w3.org/2000/svg">
<g clip-path="url(#clip0)">
<path d="M41.9999 28.6663C41.9999 23.5475 39.0633 18.9791 34.6652 16.757C34.5287 26.5716 26.5715 34.5288 16.7568 34.6654C18.979 39.0635 23.5474 42.0001 28.6662 42.0001C31.0662 42.0001 33.4001 41.3609 35.4508 40.1464L41.9417 41.9418L40.1463 35.4509C41.3607 33.4002 41.9999 31.0663 41.9999 28.6663Z" fill="#FF0D22"/>
<path d="M32.2515 16.5007C32.2515 7.81561 25.1859 0.75 16.5007 0.75C7.81561 0.75 0.75 7.81561 0.75 16.5007C0.75 19.3313 1.50342 22.0872 2.9341 24.5067L0.807907 32.1932L8.49476 30.0674C10.9143 31.498 13.6702 32.2515 16.5007 32.2515C25.1859 32.2515 32.2515 25.1859 32.2515 16.5007ZM14.0837 12.835H11.6667C11.6667 10.1693 13.8351 8.00098 16.5007 8.00098C19.1663 8.00098 21.3347 10.1693 21.3347 12.835C21.3347 14.1879 20.7619 15.4883 19.7627 16.4022L17.7092 18.2817V20.1665H15.2922V17.2173L18.1309 14.6191C18.6383 14.1549 18.9177 13.5213 18.9177 12.835C18.9177 11.5022 17.8335 10.418 16.5007 10.418C15.1679 10.418 14.0837 11.5022 14.0837 12.835ZM15.2922 22.5835H17.7092V25.0005H15.2922V22.5835Z" fill="#FF0D22"/>
</g>
<defs>
<clipPath id="clip0">
<rect width="41.25" height="41.25" fill="white" transform="translate(0.75 0.75)"/>
</clipPath>
</defs>
</svg>
