<svg width="48" height="48" viewBox="0 0 48 48" fill="none" xmlns="http://www.w3.org/2000/svg">
<g clip-path="url(#clip0)">
<path d="M27.6958 23.3859L26.541 25.4461H27.6958V23.3859Z" fill="#FF0D22"/>
<path d="M9.7041 24.3244C9.7041 32.2075 16.1175 38.6209 24.0005 38.6209C31.8836 38.6209 38.297 32.2075 38.297 24.3244C38.297 16.4414 31.8836 10.028 24.0004 10.028C16.1174 10.028 9.7041 16.4414 9.7041 24.3244ZM23.4751 29.2771H17.184V28.1595L20.668 23.6968C21.1993 23.0206 21.2927 22.7062 21.2927 22.2955C21.2927 21.9933 21.2207 21.7635 21.0662 21.5727C20.9759 21.4634 20.8011 21.3134 20.3612 21.3134C19.5582 21.3134 19.3965 22.0848 19.3642 22.4164L19.3151 22.9219L17.3515 22.5479L17.3749 22.1419C17.4195 21.3677 17.7283 20.7044 18.2926 20.1707C18.8697 19.6392 19.5641 19.3717 20.3612 19.3717C21.3288 19.3717 22.0945 19.6851 22.6371 20.303C23.0836 20.8111 23.3102 21.4815 23.3102 22.2954C23.3102 23.0642 23.0474 23.786 22.5065 24.5022L20.3163 27.3355H23.475V29.2771H23.4751ZM29.7136 19.4732V25.446H30.8169V27.3876H29.7136V29.277H27.6961V27.3876H23.8411V26.3567L27.7896 19.4732H29.7136Z" fill="#FF0D22"/>
<path d="M45.3749 14.7814L42.8366 15.9182C44.0255 18.5728 44.6283 21.4066 44.6283 24.3406C44.6283 35.7149 35.3746 44.9687 24.0002 44.9687C12.6258 44.9687 3.3721 35.715 3.3721 24.3407C3.3721 12.9663 12.6258 3.7126 24.0002 3.7126C27.3603 3.7126 30.5969 4.50647 33.5117 6.02755L30.4819 6.55451L30.9585 9.29472L38.663 7.9547L37.323 0.25L34.5828 0.726619L35.1039 3.7228C31.7153 1.88882 27.9315 0.931228 24.0001 0.931228C17.7472 0.931228 11.8686 3.36624 7.44723 7.78773C3.02583 12.2091 0.59082 18.0877 0.59082 24.3407C0.59082 30.5937 3.02583 36.4722 7.44732 40.8936C11.8687 45.3151 17.7473 47.7501 24.0002 47.7501C30.2531 47.7501 36.1317 45.3151 40.5532 40.8936C44.9746 36.4722 47.4096 30.5936 47.4096 24.3407C47.4096 21.0122 46.725 17.796 45.3749 14.7814Z" fill="#FF0D22"/>
</g>
<defs>
<clipPath id="clip0">
<rect width="47.5" height="47.5" fill="white" transform="translate(0.25 0.25)"/>
</clipPath>
</defs>
</svg>
