<svg width="52" height="52" viewBox="0 0 52 52" fill="none" xmlns="http://www.w3.org/2000/svg">
<path d="M24 27.5472V22.5C24 19.7 26.3333 18.6667 27.5 18.5V12.5C27.5 9.5 29.5 9 32 9H35.368C33.9854 7.08156 31.7432 5.83208 29.2165 5.83208C27.7903 5.83208 26.4198 6.23002 25.2312 6.97225C23.4228 3.90727 20.1672 2 16.5504 2C10.9632 2 6.4175 6.58427 6.4175 12.2189C6.4175 12.2538 6.4175 12.29 6.41876 12.3249C2.82792 12.9349 0 16.0921 0 19.883C0 24.1093 3.4934 27.5472 7.68411 27.5472H24Z" fill="#4676F2"/>
<path d="M46.5539 14.7334C46.5539 13.8754 47.252 13.1773 48.11 13.1773V10.8433H34.1055C31.9604 10.8433 30.2153 12.5884 30.2153 14.7334V25.0034H46.5539V14.7334Z" fill="#4676F2"/>
<path d="M50.4438 11.6234V15.5114C49.5843 15.5114 48.8877 16.208 48.8877 17.0675V18.0789H51.9998V14.7334C51.9998 13.4633 51.388 12.3337 50.4438 11.6234Z" fill="#4676F2"/>
<path d="M48.8878 20.6136V27.3375H27.881V20.6136C26.5225 21.0957 25.5469 22.3928 25.5469 23.9142V47.1773C25.5469 49.1078 27.1175 50.6784 29.048 50.6784H47.7207C49.6512 50.6784 51.2218 49.1078 51.2218 47.1773V23.9142C51.2218 22.3928 50.2463 21.0957 48.8878 20.6136ZM33.9496 46.0102H30.2151V43.6761H33.9496V46.0102ZM33.9496 41.3421H30.2151V39.008H33.9496V41.3421ZM33.9496 36.6739H30.2151V34.3398H33.9496V36.6739ZM40.2516 46.0102H36.5171V43.6761H40.2516V46.0102ZM40.2516 41.3421H36.5171V39.008H40.2516V41.3421ZM40.2516 36.6739H36.5171V34.3398H40.2516V36.6739ZM46.5537 46.0102H42.8191V43.6761H46.5537V46.0102ZM46.5537 41.3421H42.8191V39.008H46.5537V41.3421ZM46.5537 36.6739H42.8191V34.3398H46.5537V36.6739ZM46.5537 32.0057H30.2151V29.6716H46.5537V32.0057Z" fill="#4676F2"/>
</svg>
