<svg width="41" height="41" viewBox="0 0 41 41" fill="none" xmlns="http://www.w3.org/2000/svg">
<circle cx="20.1306" cy="20.8694" r="20.1306" fill="#FF0D22"/>
<g clip-path="url(#clip0)">
<path d="M29.888 26.9606V29.7479H10.8896V26.96C10.8896 25.6438 12.0244 24.0234 13.4106 23.365L16.4952 21.8995L18.6365 26.3616L19.7329 23.3891C19.949 23.43 20.1633 23.4845 20.3888 23.4845C20.6143 23.4845 20.828 23.43 21.0448 23.3891L22.0854 26.2155L24.1845 21.8499L27.3689 23.3644C28.7532 24.0228 29.888 25.6431 29.888 26.9606ZM13.6918 17.1914V15.1783C13.6918 14.837 13.8696 14.5379 14.1378 14.3657C14.4977 11.2327 17.1623 8.79104 20.3901 8.79104C23.6178 8.79104 26.2831 11.2327 26.6435 14.3657C26.9111 14.5379 27.0889 14.837 27.0889 15.1783V17.1914C27.0889 17.7259 26.6559 18.1595 26.1208 18.1595C25.5856 18.1595 25.1526 17.7259 25.1526 17.1914V16.7683C24.6286 19.4039 22.6992 21.8505 20.3907 21.8505C18.0822 21.8505 16.1527 19.4039 15.6287 16.7683V17.1914C15.6287 17.625 15.3407 17.9879 14.9474 18.1112C15.3326 19.4225 16.1874 20.5554 17.368 21.2986C17.586 21.2268 17.861 21.2404 18.128 21.3792C18.5566 21.6022 18.7753 22.0357 18.613 22.3454C18.4513 22.6551 17.9731 22.7245 17.542 22.5009C17.2274 22.3368 17.0279 22.0611 17.0069 21.8035C15.6547 20.9388 14.6959 19.6151 14.3001 18.0883C13.9445 17.9458 13.6918 17.599 13.6918 17.1914ZM14.7975 14.1396C14.8266 14.1414 14.8544 14.1421 14.8823 14.1526C14.9523 14.1786 15.0031 14.2288 15.0384 14.2876C15.2484 14.3768 15.4156 14.5397 15.5184 14.7416C15.804 12.0652 17.8728 10.6493 20.3888 10.6493C22.9048 10.6493 24.9736 12.0652 25.2592 14.7416C25.401 14.4635 25.6705 14.2647 25.9932 14.2232C25.5745 11.5022 23.2244 9.40983 20.3888 9.40983C17.5823 9.41045 15.2509 11.46 14.7975 14.1396Z" fill="white"/>
</g>
<defs>
<clipPath id="clip0">
<rect width="20.9569" height="20.9569" fill="white" transform="translate(9.91113 8.79105)"/>
</clipPath>
</defs>
</svg>
