<svg width="65" height="65" viewBox="0 0 65 65" fill="none" xmlns="http://www.w3.org/2000/svg">
<circle cx="32.5" cy="32.5" r="32.5" fill="#FF0D22"/>
<path d="M36.208 39.336H28.912V35.736C28.912 34.424 29.072 33.448 29.392 32.808C29.744 32.136 30.464 31.24 31.552 30.12L34.816 26.76C35.296 26.184 35.536 25.448 35.536 24.552C35.536 23.624 35.28 22.856 34.768 22.248C34.256 21.64 33.584 21.336 32.752 21.336C31.92 21.336 31.216 21.704 30.64 22.44C30.096 23.144 29.76 24.088 29.632 25.272H22C22.352 22.072 23.52 19.56 25.504 17.736C27.488 15.912 29.968 15 32.944 15C35.952 15 38.384 15.816 40.24 17.448C42.128 19.08 43.072 21.336 43.072 24.216C43.072 25.496 42.912 26.456 42.592 27.096C42.272 27.704 42.048 28.152 41.92 28.44C41.792 28.696 41.488 29.096 41.008 29.64C40.56 30.184 40.256 30.536 40.096 30.696C39.328 31.464 38.592 32.184 37.888 32.856C37.216 33.528 36.768 34.088 36.544 34.536C36.32 34.952 36.208 35.592 36.208 36.456V39.336ZM29.632 48.504C28.832 47.672 28.432 46.664 28.432 45.48C28.432 44.296 28.832 43.304 29.632 42.504C30.464 41.672 31.472 41.256 32.656 41.256C33.84 41.256 34.832 41.672 35.632 42.504C36.464 43.304 36.88 44.296 36.88 45.48C36.88 46.664 36.464 47.672 35.632 48.504C34.832 49.304 33.84 49.704 32.656 49.704C31.472 49.704 30.464 49.304 29.632 48.504Z" fill="white"/>
</svg>
