<svg width="40" height="40" viewBox="0 0 40 40" fill="none" xmlns="http://www.w3.org/2000/svg">
<circle cx="20" cy="20" r="20" fill="white"/>
<path d="M6.4668 14.0491H9.37002V19.0891H15.6178V14.0491H18.521V26.4517H15.6178V21.551H9.37002V26.4517H6.4668V14.0491Z" fill="black"/>
<path d="M34.0248 20.3201C34.0248 20.5213 34.0093 20.8078 33.9783 21.1794H24.2467C24.417 22.093 24.8583 22.8207 25.5706 23.3626C26.2983 23.8891 27.1964 24.1523 28.2648 24.1523C29.6273 24.1523 30.7499 23.7033 31.6325 22.8052L33.1886 24.5936C32.6312 25.2594 31.9267 25.7626 31.0751 26.1033C30.2235 26.4439 29.2635 26.6142 28.1951 26.6142C26.8325 26.6142 25.6325 26.3433 24.5951 25.8013C23.5577 25.2594 22.7525 24.5084 22.1796 23.5484C21.6222 22.573 21.3435 21.4736 21.3435 20.2504C21.3435 19.0426 21.6144 17.9588 22.1564 16.9988C22.7138 16.0233 23.4802 15.2646 24.4557 14.7226C25.4312 14.1807 26.5306 13.9097 27.7538 13.9097C28.9615 13.9097 30.0377 14.1807 30.9822 14.7226C31.9422 15.2491 32.6854 16.0001 33.2119 16.9755C33.7538 17.9355 34.0248 19.0504 34.0248 20.3201ZM27.7538 16.2323C26.8248 16.2323 26.0351 16.511 25.3848 17.0684C24.7499 17.6104 24.3628 18.3381 24.2235 19.2517H31.2609C31.137 18.3536 30.7577 17.6259 30.1228 17.0684C29.488 16.511 28.6983 16.2323 27.7538 16.2323Z" fill="black"/>
</svg>
