<svg width="65" height="65" viewBox="0 0 65 65" fill="none" xmlns="http://www.w3.org/2000/svg">
<circle cx="32.5" cy="32.5" r="32.5" fill="#FF0D22"/>
<path d="M32.5 16C22.8505 16 15 23.0653 15 31.75C15 34.7857 15.9602 37.7262 17.7814 40.269C17.4366 44.0822 16.5126 46.9132 15.171 48.2542C14.9936 48.4316 14.9493 48.7028 15.0613 48.9268C15.1605 49.1269 15.3646 49.25 15.5834 49.25C15.6102 49.25 15.637 49.2482 15.6645 49.2442C15.9007 49.2109 21.3887 48.4211 25.3583 46.1297C27.6123 47.0392 30.0133 47.5 32.5 47.5C42.1495 47.5 50 40.4347 50 31.75C50 23.0653 42.1495 16 32.5 16ZM24.3334 34.0833C23.0465 34.0833 22 33.0368 22 31.75C22 30.4632 23.0465 29.4167 24.3334 29.4167C25.6202 29.4167 26.6667 30.4632 26.6667 31.75C26.6667 33.0368 25.6202 34.0833 24.3334 34.0833ZM32.5 34.0833C31.2132 34.0833 30.1667 33.0368 30.1667 31.75C30.1667 30.4632 31.2132 29.4167 32.5 29.4167C33.7869 29.4167 34.8334 30.4632 34.8334 31.75C34.8334 33.0368 33.7869 34.0833 32.5 34.0833ZM40.6667 34.0833C39.3799 34.0833 38.3334 33.0368 38.3334 31.75C38.3334 30.4632 39.3799 29.4167 40.6667 29.4167C41.9535 29.4167 43 30.4632 43 31.75C43 33.0368 41.9535 34.0833 40.6667 34.0833Z" fill="white"/>
</svg>
