<svg width="155" height="63" viewBox="0 0 155 63" fill="none" xmlns="http://www.w3.org/2000/svg">
<path d="M0.999902 39.5V39.4C0.999902 39.3 0.999902 39.2 0.999902 39.1C0.999902 38.7 0.999902 38.3 0.999902 37.9C0.999902 37.4 1.0999 36.8 1.0999 36.3C1.0999 35.8 1.1999 35.4 1.1999 34.9C1.2999 34.4 1.2999 34 1.3999 33.5C1.4999 33 1.5999 32.5 1.5999 31.9C1.6999 31.1 1.8999 30.2 2.0999 29.4C2.5999 28 2.9999 26.5 3.3999 25C4.1999 22.4 5.2999 20 6.5999 17.7C7.8999 15.3 9.5999 13.2 11.4999 11.2C13.7999 8.80002 16.4999 6.90002 19.3999 5.40002C21.4999 4.30002 23.5999 3.50002 25.8999 2.90002C27.0999 2.60002 28.2999 2.30002 29.4999 2.10002C30.1999 2.00002 30.8999 1.90002 31.6999 1.80002C32.2999 1.70002 32.8999 1.70002 33.4999 1.60002C34.0999 1.60002 34.5999 1.50002 35.1999 1.50002C36.0999 1.40002 36.9999 1.40002 37.8999 1.40002C37.9999 1.40002 37.9999 1.40002 38.0999 1.40002V1.50002C38.0999 1.60002 38.0999 1.60002 38.0999 1.70002C38.0999 15 38.0999 28.2 38.0999 41.5C38.0999 41.6 38.0999 41.7 38.0999 41.8H37.9999C37.8999 41.8 37.8999 41.8 37.7999 41.8C35.1999 41.8 32.6999 41.8 30.0999 41.8C29.9999 41.8 29.8999 41.8 29.7999 41.8C29.7999 41.7 29.7999 41.7 29.7999 41.7C29.7999 41.6 29.7999 41.6 29.7999 41.5C29.7999 36.9 29.7999 32.4 29.7999 27.8C29.7999 27.7 29.7999 27.6 29.7999 27.5H29.6999C29.5999 27.5 29.5999 27.5 29.4999 27.5C24.1999 27.5 18.8999 27.5 13.5999 27.5C13.4999 27.5 13.3999 27.5 13.2999 27.5C13.2999 27.6 13.2999 27.6 13.2999 27.7C13.1999 28.4 13.0999 29.2 12.8999 29.9C12.7999 30.5 12.6999 31.2 12.5999 31.8C12.4999 32.2 12.4999 32.6 12.4999 33.1C12.4999 33.6 12.3999 34.1 12.3999 34.6C12.3999 35 12.2999 35.4 12.2999 35.8C12.2999 36.5 12.1999 37.1 12.1999 37.8C12.1999 38.6 12.1999 39.3 12.0999 40.1C12.0999 40.6 12.0999 41.2 12.0999 41.7C12.0999 41.8 12.0999 41.8 12.0999 41.9H11.9999C11.8999 41.9 11.8999 41.9 11.7999 41.9C8.2999 41.9 4.7999 41.9 1.1999 41.9C1.0999 41.9 0.999902 41.9 0.899902 41.9C0.899902 41.8 0.899902 41.8 0.899902 41.7C0.899902 41.6 0.899902 41.4 0.899902 41.3C0.999902 41.1 0.999902 41 0.999902 41C0.999902 40.5 0.999902 40 0.999902 39.5ZM14.3999 23.3C14.3999 23.3 14.4999 23.3 14.3999 23.3C19.5999 23.3 24.6999 23.3 29.7999 23.3C29.7999 23.3 29.7999 23.3 29.8999 23.3C29.8999 23.2 29.8999 23.1 29.8999 23C29.8999 17 29.8999 11.1 29.8999 5.10002C29.8999 5.00002 29.8999 5.00002 29.8999 4.90002V4.80002H29.7999C28.3999 5.20002 27.0999 5.80002 25.7999 6.50002C23.8999 7.60002 22.1999 9.10003 20.6999 10.8C19.4999 12.2 18.3999 13.8 17.4999 15.5C16.5999 17.2 15.8999 18.9 15.2999 20.7C15.0999 21.4 14.7999 22.2 14.5999 22.9C14.3999 23.1 14.3999 23.2 14.3999 23.3Z" fill="#FF0D22"/>
<path d="M123.8 4.80005C123.8 4.90005 123.8 4.90005 123.8 4.90005C123.8 5.00005 123.8 5.10005 123.8 5.20005C123.8 17.3 123.8 29.4 123.8 41.5C123.8 41.6 123.8 41.7001 123.8 41.8H123.7C123.6 41.8 123.6 41.8 123.5 41.8C120.9 41.8 118.4 41.8 115.8 41.8C115.7 41.8 115.6 41.8 115.6 41.8C115.6 41.8 115.6 41.8 115.6 41.7001C115.6 28.3001 115.6 14.9 115.6 1.40005C115.6 1.40005 115.6 1.40005 115.6 1.30005H115.7C116.3 1.30005 116.9 1.30005 117.5 1.30005C117.8 1.30005 118.2 1.30005 118.5 1.30005C119 1.30005 119.6 1.40005 120.1 1.40005C120.5 1.40005 121 1.50005 121.4 1.50005C121.9 1.60005 122.5 1.60005 123 1.70005C123.6 1.80005 124.2 1.90005 124.9 2.00005C128.5 2.70005 132 3.90005 135.2 5.70005C138.9 7.80005 142.1 10.6 144.7 14C146.2 16 147.5 18.2001 148.6 20.6C149.5 22.6 150.2 24.6 150.8 26.7001C151.2 28.1 151.5 29.6 151.8 31C151.9 31.8 152.1 32.5 152.2 33.3C152.3 33.9 152.4 34.5 152.4 35.1C152.5 35.6 152.5 36.1 152.5 36.6C152.6 38.2 152.6 39.8001 152.6 41.4001C152.6 41.5 152.6 41.5 152.6 41.6H152.5H152.4C148.9 41.6 145.3 41.6 141.8 41.6C141.7 41.6 141.6 41.6 141.5 41.6C141.5 41.5 141.5 41.5 141.5 41.4001C141.5 40.6001 141.5 39.7001 141.5 38.9001C141.5 38.1001 141.4 37.3 141.4 36.5C141.4 36.2001 141.4 35.9 141.3 35.6C141.3 35.1 141.2 34.7001 141.2 34.2001C141.2 33.9001 141.1 33.5 141.1 33.2001C141.1 32.9001 141 32.5 141 32.2001C141 31.8001 140.9 31.5 140.9 31.1C140.8 30.7001 140.8 30.2 140.7 29.8C140.6 29.3 140.6 28.9 140.5 28.4C140.4 27.6 140.2 26.8 140.1 26C139.8 24.8 139.5 23.5 139.2 22.3C138.6 20.4 138 18.5 137.1 16.7C136.3 14.9 135.3 13.3 134.1 11.7C132.8 10 131.4 8.60005 129.7 7.40005C128 6.20005 126.2 5.30005 124.2 4.70005C124 4.80005 123.9 4.80005 123.8 4.80005Z" fill="#FF0D22"/>
<path d="M53.3998 9.40002C53.2998 9.40002 53.2998 9.40002 53.1998 9.40002C50.5998 10.3 48.0998 11.4 45.7998 12.9C44.1998 13.9 42.7998 15 41.3998 16.2L41.2998 16.3V16.2C41.2998 16.1 41.2998 16.1 41.2998 16C41.2998 12.1 41.2998 8.20002 41.2998 4.40002C41.2998 4.30002 41.2998 4.20002 41.2998 4.10002C41.3998 4.10002 41.3998 4.00002 41.4998 4.00002C42.4998 3.70002 43.4998 3.40002 44.4998 3.10002C45.6998 2.80002 46.9998 2.50002 48.1998 2.30002C48.8998 2.20002 49.6998 2.00002 50.3998 1.90002C51.0998 1.80002 51.7998 1.70002 52.4998 1.60002C53.1998 1.50002 53.7998 1.50002 54.4998 1.40002C55.0998 1.30002 55.6998 1.30002 56.2998 1.20002C56.8998 1.20002 57.4998 1.10002 58.1998 1.10002C58.7998 1.10002 59.4998 1.00002 60.0998 1.00002C61.4998 1.00002 62.7998 0.900024 64.1998 0.900024C64.7998 0.900024 65.4998 0.900024 66.0998 0.900024C66.7998 0.900024 67.4998 0.900024 68.2998 1.00002C68.7998 1.00002 69.2998 1.00002 69.6998 1.10002C70.3998 1.10002 70.9998 1.20002 71.6998 1.20002C72.0998 1.20002 72.4998 1.30002 72.8998 1.30002C73.2998 1.30002 73.5998 1.40002 73.9998 1.40002C74.2998 1.40002 74.6998 1.50002 74.9998 1.50002C75.0998 1.50002 75.1998 1.50002 75.2998 1.50002C75.3998 1.90002 75.2998 2.40002 75.3998 2.80002C75.3998 3.20002 75.3998 3.70002 75.4998 4.10002C75.4998 4.50002 75.5998 5.00002 75.4998 5.40002C75.3998 5.40002 75.2998 5.40002 75.1998 5.50002C74.5998 5.50002 73.9998 5.60002 73.3998 5.60002C72.7998 5.60002 72.0998 5.70002 71.4998 5.70002C71.0998 5.70002 70.6998 5.80002 70.1998 5.80002C69.7998 5.80002 69.4998 5.90002 69.0998 5.90002C68.7998 5.90002 68.3998 6.00002 68.0998 6.00002C67.7998 6.00002 67.4998 6.10002 67.1998 6.10002C66.8998 6.10002 66.5998 6.20002 66.3998 6.20002C65.9998 6.20002 65.6998 6.30002 65.2998 6.30002C64.8998 6.40002 64.4998 6.40002 64.0998 6.50002C63.4998 6.90002 62.9998 7.00002 62.3998 7.10002C62.0998 7.10002 61.8998 7.20002 61.5998 7.20002V7.30002C61.5998 7.40002 61.5998 7.50002 61.5998 7.50002C61.5998 18.8 61.5998 30.1 61.5998 41.4C61.5998 41.5 61.5998 41.6 61.5998 41.7H61.4998C61.3998 41.7 61.3998 41.7 61.2998 41.7C58.6998 41.7 56.1998 41.7 53.5998 41.7C53.4998 41.7 53.3998 41.7 53.2998 41.7V41.6C53.2998 41.5 53.2998 41.5 53.2998 41.4C53.2998 30.8 53.2998 20.2 53.2998 9.60003C53.3998 9.60003 53.3998 9.50002 53.3998 9.40002Z" fill="#FF0D22"/>
<path d="M77.3999 35.8C78.0999 35.1 78.8999 34.4 79.5999 33.7C79.6999 33.7 79.6999 33.8 79.6999 33.9C80.2999 34.7 80.9999 35.4 81.6999 36.1C83.1999 37.4 84.9999 38.2 86.8999 38.6C87.5999 38.7 88.1999 38.8 88.8999 38.8C89.2999 38.8 89.7999 38.8 90.1999 38.8C91.1999 38.7 92.2999 38.5 93.2999 38.2C95.9999 37.3 98.0999 35.6 99.5999 33.2C100.4 31.9 101 30.5 101.3 29C101.5 28.1 101.6 27.2 101.6 26.3C101.6 25.8 101.6 25.4 101.5 25C101.4 24 101.1 23 100.8 22.1C100.5 21.3 100.2 20.6 99.6999 19.9C99.6999 19.8 99.5999 19.8 99.5999 19.7C99.5999 19.6 99.6999 19.6 99.6999 19.5C100.4 18.8 101.1 18.2 101.8 17.5C104.2 15.2 106.6 13 109 10.7C109.1 10.6 109.1 10.6 109.2 10.5C109.2 10.6 109.3 10.6 109.3 10.7C110.2 12.1 110.8 13.6 111.3 15.2C111.6 16.2 111.8 17.1 112 18.1C112.1 18.7 112.2 19.3 112.2 19.9C112.2 20.5 112.3 21.2 112.3 21.8C112.3 22.5 112.2 23.1 112.2 23.8C112 25.5 111.6 27.1 111 28.7C109.3 33.4 105.9 37.3 101.6 39.7C99.8999 40.6 98.0999 41.3 96.1999 41.7C95.5999 41.8 94.8999 41.9 94.2999 42C93.3999 42.1 92.5999 42.1 91.6999 42.1C91.2999 42.1 90.8999 42.1 90.3999 42C89.7999 42 89.1999 41.9 88.5999 41.8C87.3999 41.6 86.1999 41.3 84.9999 40.8C82.3999 39.8 80.0999 38.3 77.9999 36.4C77.7999 36.2 77.5999 36 77.3999 35.8C77.3999 35.9 77.3999 35.8 77.3999 35.8Z" fill="#FF0D22"/>
<path d="M106.4 7.3C106.4 7.4 106.3 7.4 106.4 7.3C105.7 8 104.9 8.7 104.2 9.4C104.2 9.4 104.2 9.4 104.1 9.4L104 9.3C102.3 7.1 100.2 5.6 97.4998 4.8C96.8998 4.6 96.2998 4.5 95.6998 4.5C94.8998 4.4 94.1998 4.4 93.3998 4.4C91.0998 4.6 88.9998 5.3 87.1998 6.7C84.7998 8.5 83.1998 10.9 82.4998 13.8C82.2998 14.4 82.1998 15.1 82.1998 15.7C82.0998 16.4 82.0998 17 82.1998 17.7C82.3998 19.8 82.9998 21.7 83.9998 23.4L84.0998 23.5C84.0998 23.5 84.0998 23.5 83.9998 23.6C80.7998 26.6 77.5998 29.6 74.4998 32.6C74.3998 32.6 74.3998 32.5 74.3998 32.5C73.6998 31.3 73.0998 30.1 72.6998 28.9C72.2998 27.7 71.8998 26.4 71.6998 25.2C71.5998 24.5 71.4998 23.9 71.4998 23.2C71.3998 22.3 71.3998 21.5 71.4998 20.6C71.4998 19.9 71.5998 19.2 71.6998 18.5C71.8998 17.1 72.2998 15.7 72.7998 14.3C74.4998 9.7 77.7998 5.9 82.0998 3.5C83.8998 2.5 85.7998 1.8 87.6998 1.4C88.2998 1.3 88.8998 1.2 89.4998 1.1C90.5998 1 91.6998 1 92.7998 1C93.2998 1 93.7998 1.1 94.2998 1.1C95.1998 1.2 96.0998 1.4 96.9998 1.6C99.7998 2.4 102.4 3.7 104.6 5.5C105.2 6 105.8 6.5 106.3 7.1C106.3 7.2 106.3 7.3 106.4 7.3Z" fill="#FF0D22"/>
<path d="M79.1001 57.7H80.5001L79.8001 55.6L79.1001 57.7Z" fill="#FF0D22"/>
<path d="M48.6001 55.4C48.1001 55.4 47.8001 55.6 47.5001 55.9C47.2001 56.2 47.1001 56.6 47.1001 57.1C47.1001 57.6 47.2001 58 47.5001 58.3C47.8001 58.6 48.1001 58.8 48.6001 58.8C49.1001 58.8 49.4001 58.6 49.7001 58.3C50.0001 58 50.1001 57.6 50.1001 57.1C50.1001 56.6 50.0001 56.2 49.7001 55.9C49.5001 55.6 49.1001 55.4 48.6001 55.4Z" fill="#FF0D22"/>
<path d="M148.9 50.5H7C3.7 50.5 1 53.2 1 56.5C1 59.8 3.7 62.5 7 62.5H148.9C152.2 62.5 154.9 59.8 154.9 56.5C154.9 53.2 152.2 50.5 148.9 50.5ZM89.1 52.8C89.3 53.1 89.6 53.3 90 53.3C90.4 53.3 90.7 53.1 90.9 52.8L91.5 53.3C91.1 53.7 90.6 54 90 54C89.4 54 88.9 53.8 88.5 53.3L89.1 52.8ZM50.8 59.1C50.2 59.6 49.5 59.9 48.7 59.9C47.8 59.9 47.1 59.6 46.6 59.1C46 58.6 45.7 57.9 45.7 57C45.7 56.1 46 55.5 46.6 54.9C47.2 54.3 47.9 54.1 48.7 54.1C49.6 54.1 50.3 54.4 50.8 54.9C51.4 55.4 51.6 56.1 51.6 57C51.6 57.9 51.3 58.6 50.8 59.1ZM61.8 59.8H60.4V57.6H58V59.8H56.6V54.2H58V56.3H60.3V54.2H61.7V59.8H61.8ZM72.2 59.8H70.8V55.5H69.4L69.2 57.2C69.1 57.7 69 58.2 68.9 58.6C68.8 59 68.6 59.3 68.3 59.4C68 59.5 67.8 59.7 67.6 59.8C67.4 59.9 67.1 59.9 66.7 59.9V58.6C67 58.6 67.2 58.5 67.4 58.3C67.6 58.1 67.7 57.7 67.8 57.1L68.1 54.3H72.3V59.8H72.2ZM81.2 59.8L80.9 59H78.7L78.4 59.8H76.8L78.9 54.2H80.7L82.8 59.8H81.2ZM92.6 59.8H91.1V56.3L88.7 59.8H87.3V54.2H88.7V57.5L91 54.2H92.5V59.8H92.6ZM103 59.8H101.6V57.6H99.3V59.8H97.9V54.2H99.3V56.3H101.6V54.2H103V59.8Z" fill="#FF0D22"/>
</svg>
