<svg width="587" height="583" viewBox="0 0 587 583" fill="none" xmlns="http://www.w3.org/2000/svg">
<path opacity="0.1" d="M542.697 135C620.973 259.662 596.128 435.923 463.353 529.786C336.723 619.383 172.691 588.318 86 492.588C96.1518 483.121 106.304 473.655 116.455 464.055C185.114 553.786 299.722 548.852 363.171 500.454C428.089 450.856 459.88 352.593 405.114 262.862C450.663 220.597 496.346 178.065 542.697 135Z" fill="white"/>
<path opacity="0.1" d="M501 90.1383C490.852 99.6189 480.571 109.1 471.892 117.245C455.334 103.091 440.647 87.4676 423.422 76.1176C318.471 6.68169 174.932 71.444 156.238 195.894C149.962 237.556 157.306 276.547 178.27 313.134C180.54 317.007 183.077 319.944 178.136 324.484C134.206 364.944 90.5437 405.804 46.7474 446.531C46.0798 447.199 45.1451 447.466 44.344 448C-30.0295 332.897 -14.4071 156.369 118.317 57.4233C244.365 -36.5822 411.939 -7.73961 501 90.1383Z" fill="white"/>
</svg>
