<svg width="18" height="18" viewBox="0 0 18 18" fill="none" xmlns="http://www.w3.org/2000/svg">
<path fill-rule="evenodd" clip-rule="evenodd" d="M9 17.25C13.5563 17.25 17.25 13.5563 17.25 9C17.25 4.44365 13.5563 0.75 9 0.75C4.44365 0.75 0.75 4.44365 0.75 9C0.75 13.5563 4.44365 17.25 9 17.25ZM6.04289 11.9571C5.65237 11.5666 5.65237 10.9334 6.04289 10.5429L7.58579 9L6.04289 7.45711C5.65237 7.06658 5.65237 6.43342 6.04289 6.04289C6.43342 5.65237 7.06658 5.65237 7.45711 6.04289L9 7.58579L10.5429 6.04289C10.9334 5.65237 11.5666 5.65237 11.9571 6.04289C12.3476 6.43342 12.3476 7.06658 11.9571 7.45711L10.4142 9L11.9571 10.5429C12.3476 10.9334 12.3476 11.5666 11.9571 11.9571C11.5666 12.3476 10.9334 12.3476 10.5429 11.9571L9 10.4142L7.45711 11.9571C7.06658 12.3476 6.43342 12.3476 6.04289 11.9571Z" fill="#CDCBCB"/>
</svg>
