<svg width="34" height="34" viewBox="0 0 34 34" fill="none" xmlns="http://www.w3.org/2000/svg">
<circle cx="17" cy="17" r="17" fill="#F2F2F2"/>
<path d="M20.3277 10.3963H22.1869V7.00207H18.8083C18.5264 6.99034 15.0908 6.92467 14.2003 10.3205C14.1874 10.356 13.9028 11.1637 13.9028 13.0502L10.8135 13.0595V16.6195L13.9067 16.6105V26.0005H18.6316V16.6188H21.7589V13.0494H18.6316V11.9263C18.6316 11.2282 18.926 10.3963 20.3277 10.3963ZM20.977 13.8308V15.8365H17.8498V25.2183H14.6885V15.8264L11.5953 15.8354V13.839L14.6967 13.83L14.6885 13.4325C14.6479 11.4342 14.9328 10.5937 14.9457 10.5534C15.7143 7.62869 18.6488 7.77567 18.7747 7.78349L21.4051 7.78427V9.61488H20.3277C18.501 9.61488 17.8502 10.8087 17.8502 11.9259V13.8308H20.977Z" fill="#929292"/>
</svg>
