<svg width="34" height="34" viewBox="0 0 34 34" fill="none" xmlns="http://www.w3.org/2000/svg">
<circle cx="17" cy="17" r="17" fill="#F2F2F2"/>
<path d="M26.1113 21.1123C25.6763 20.5909 25.1848 20.1254 24.7094 19.6752C24.5424 19.517 24.3696 19.3533 24.2032 19.1909C24.2031 19.1908 24.2031 19.1908 24.2031 19.1908C23.9792 18.9724 23.8697 18.8175 23.8582 18.703C23.847 18.5905 23.9239 18.4236 24.1007 18.1769C24.3651 17.8058 24.6469 17.4341 24.9196 17.0746C25.1619 16.7551 25.4125 16.4247 25.6526 16.0924L25.7066 16.0177C26.1751 15.3692 26.6596 14.6986 26.9192 13.8815C26.9933 13.6472 27.0703 13.3004 26.8846 12.9961C26.6988 12.6916 26.3544 12.6014 26.1117 12.56C25.9931 12.5397 25.8806 12.538 25.7759 12.538L22.7366 12.5354C22.2112 12.5266 21.8466 12.7757 21.6479 13.2758C21.489 13.6753 21.3012 14.1382 21.0836 14.5774C20.6674 15.4251 20.1386 16.4016 19.372 17.2151L19.3379 17.2514C19.2858 17.3071 19.2005 17.3982 19.1567 17.4191C19.0736 17.3669 18.9778 17.0684 18.9822 16.9121C18.9823 16.9082 18.9824 16.9044 18.9824 16.9005L18.9797 13.3887C18.9797 13.3708 18.9784 13.353 18.976 13.3353C18.9079 12.8343 18.775 12.332 17.982 12.1755C17.9566 12.1705 17.9307 12.168 17.9048 12.168H14.7433C14.1485 12.168 13.8339 12.4404 13.5817 12.7357C13.5087 12.8218 13.3147 13.0504 13.4135 13.3298C13.5135 13.6126 13.8115 13.669 13.9093 13.6875C14.2538 13.7529 14.432 13.9477 14.4871 14.3199C14.5962 15.0433 14.6095 15.817 14.5293 16.7539C14.5069 17.0054 14.4652 17.1966 14.398 17.3556C14.3794 17.3996 14.3631 17.4269 14.3517 17.4429C14.3335 17.4356 14.3052 17.4215 14.266 17.3947C14.0239 17.229 13.8414 16.9715 13.665 16.7225C12.9602 15.7274 12.3674 14.6284 11.8524 13.3622C11.6403 12.8434 11.2417 12.5536 10.7306 12.5461C9.75682 12.5298 8.85623 12.5302 7.97826 12.5473C7.56415 12.5545 7.27376 12.6848 7.11501 12.9348C6.95607 13.1852 6.96189 13.5045 7.13236 13.884C8.35095 16.5938 9.45744 18.565 10.7199 20.2757C11.6089 21.4801 12.5037 22.3161 13.536 22.9068C14.6207 23.5273 15.8439 23.8314 17.2629 23.8313C17.4243 23.8313 17.5885 23.8274 17.7548 23.8195C18.6304 23.7796 18.9866 23.4313 19.0254 22.5786C19.0472 22.128 19.0974 21.7629 19.2714 21.4457C19.3201 21.3569 19.375 21.2974 19.4183 21.2865C19.4643 21.275 19.5459 21.3032 19.6367 21.3621C19.8025 21.4698 19.9454 21.6159 20.0629 21.7442C20.1819 21.8745 20.3022 22.0092 20.4187 22.1394C20.6665 22.4166 20.9227 22.7033 21.1911 22.9767C21.7983 23.5956 22.4982 23.8795 23.2723 23.82L26.0537 23.8213C26.0538 23.8213 26.0539 23.8213 26.0539 23.8213C26.0627 23.8213 26.0716 23.821 26.0804 23.8204C26.4012 23.7991 26.6786 23.6215 26.8415 23.333C27.0376 22.9857 27.0346 22.5457 26.8334 22.1557C26.6234 21.7502 26.3509 21.4011 26.1113 21.1123ZM26.1477 22.9413C26.1093 23.0092 26.062 23.0216 26.0376 23.0245L23.2567 23.0232C23.2567 23.0232 23.2566 23.0232 23.2565 23.0232C23.2455 23.0232 23.2345 23.0237 23.2236 23.0246C22.6758 23.0702 22.2101 22.8777 21.7598 22.4187C21.5044 22.1584 21.2544 21.8789 21.0127 21.6085C20.895 21.4767 20.7732 21.3404 20.6509 21.2065C20.4992 21.0408 20.3116 20.8504 20.0706 20.6939C19.7099 20.4597 19.4109 20.4668 19.2236 20.514C19.0384 20.5607 18.775 20.6939 18.5729 21.0628C18.311 21.5401 18.2532 22.055 18.2297 22.5414C18.2161 22.8389 18.1658 22.9175 18.1448 22.9375C18.1172 22.9637 18.0252 23.0097 17.7181 23.0237C16.2425 23.0931 15.0041 22.8288 13.9318 22.2153C12.9989 21.6815 12.182 20.9148 11.3611 19.8027C10.1335 18.1394 9.05345 16.2133 7.85912 13.5575C7.81583 13.4613 7.80247 13.4012 7.79861 13.3691C7.82908 13.3591 7.88861 13.3459 7.99298 13.344C8.86205 13.3272 9.75322 13.3267 10.7182 13.3428C10.8503 13.3447 11.0007 13.3844 11.1146 13.6631C11.6527 14.9861 12.2742 16.1375 13.0148 17.1831C13.2115 17.4606 13.4562 17.8061 13.816 18.0522C14.1455 18.2779 14.4128 18.2671 14.5792 18.2183C14.7456 18.1696 14.9765 18.034 15.1321 17.6657C15.2324 17.4283 15.2931 17.161 15.3231 16.8233C15.4089 15.8212 15.3937 14.9881 15.2753 14.2023C15.1918 13.6393 14.9011 13.2325 14.4432 13.0248C14.5245 12.9825 14.6161 12.9648 14.7434 12.9648H17.8636C18.0391 13.0042 18.0739 13.0505 18.0858 13.0663C18.1364 13.1335 18.1653 13.2925 18.1829 13.4168L18.1856 16.8963C18.1786 17.2298 18.3407 17.9696 18.8926 18.1724C18.8972 18.1741 18.9017 18.1757 18.9063 18.1772C19.4088 18.3414 19.7412 17.9867 19.9196 17.7961L19.9514 17.7622C20.7911 16.871 21.3565 15.8297 21.7983 14.9299C22.0285 14.4652 22.2235 13.9846 22.3884 13.5703C22.4709 13.3625 22.546 13.3283 22.7251 13.3321C22.7276 13.3322 22.73 13.3322 22.7325 13.3322L25.7757 13.3349C25.8465 13.3349 25.9203 13.3357 25.9776 13.3455C26.1226 13.3702 26.1824 13.4003 26.2021 13.4127C26.2041 13.4358 26.2036 13.5022 26.1598 13.6408C25.9391 14.3357 25.5124 14.9261 25.0608 15.5512L25.0069 15.6259C24.7723 15.9506 24.5245 16.2773 24.2849 16.5933C24.0087 16.9574 23.7233 17.3338 23.4526 17.7137C22.8739 18.5211 22.9248 19.0569 23.6469 19.7613C23.8176 19.9279 23.9925 20.0936 24.1617 20.2538C24.6415 20.7082 25.0946 21.1374 25.4991 21.622C25.7108 21.8773 25.9508 22.1838 26.1257 22.5216C26.2169 22.6984 26.1946 22.8582 26.1477 22.9413Z" fill="#929292"/>
</svg>
