<svg width="102" height="78" viewBox="0 0 102 78" fill="none" xmlns="http://www.w3.org/2000/svg">
<path d="M30.0459 44.018H3.04906C1.39748 44.018 0 42.6306 0 40.9909V24.5945C0 22.8918 1.39748 21.5675 3.04906 21.5675H30.0459C31.761 21.5675 33.095 22.9549 33.095 24.5945V40.9909C33.095 42.6306 31.761 44.018 30.0459 44.018Z" fill="#C0C0C0"/>
<path d="M30.3001 41.5587C29.4743 41.5587 28.9026 42.3785 29.2202 43.1983C30.5542 46.1623 32.0787 48.874 39.1932 49.3154C48.2133 49.883 50.3731 48.6217 52.7234 51.7118C55.0737 54.8019 60.6001 59.7208 60.6001 59.7208C60.6001 59.7208 73.1139 56.946 76.7347 49.3154C80.3555 41.6848 81.88 37.4596 81.88 37.4596C81.88 37.4596 78.1957 9.58569 57.9957 3.15326C37.7957 -3.27918 30.3001 1.95506 27.3781 3.15326C24.4561 4.35145 21.4706 8.57668 21.28 9.77488C21.0894 11.0361 21.28 12.3605 21.28 12.3605C21.28 12.3605 18.358 14.7569 19.7555 16.901C21.1529 19.0451 24.202 17.4686 24.202 17.4686C24.202 17.4686 20.7718 20.2433 22.741 23.2704C24.7102 26.2974 29.1567 24.4055 30.4907 22.9551C31.8246 21.5046 42.941 13.6848 47.2605 20.4325C51.58 27.1803 54.1844 35.5677 46.7523 38.9731C41.2259 41.5587 33.6033 41.6848 30.3001 41.5587Z" fill="#F6A398"/>
<path d="M61.2988 55.7477C61.2988 55.7477 55.2642 51.5855 55.7724 38.4684C56.2806 25.3513 56.7252 20.4954 49.6743 16.3963C42.3692 12.1711 33.6667 20.1801 29.9824 21.5044C26.2982 22.8288 23.1856 22.009 23.9479 18.6036C24.6466 15.2612 33.6667 8.82878 39.4472 7.69364C45.2277 6.5585 48.2133 6.93688 48.2133 6.93688" stroke="black" stroke-miterlimit="10" stroke-linecap="round"/>
<path d="M79.2122 36.9549C79.2122 36.9549 80.8637 18.2252 62.6964 7.37831C44.5291 -3.46853 31.0625 2.4594 27.5688 4.28823C24.0751 6.11705 22.1059 9.20714 21.9153 10.1531C21.7248 11.099 22.2329 12.2342 22.2329 12.2342" stroke="black" stroke-miterlimit="10" stroke-linecap="round"/>
<path d="M34.5558 4.41443C34.5558 4.41443 26.3614 7.50452 22.7407 11.9189C20.708 14.4415 19.6916 16.2703 21.0256 17.5315C22.3596 18.7928 24.3923 17.5315 24.3923 17.5315" stroke="black" stroke-miterlimit="10" stroke-linecap="round"/>
<path d="M8.57535 28.5045H4.31937C3.17597 28.5045 2.22314 27.5585 2.22314 26.4234V26.1081C2.22314 24.9729 3.17597 24.027 4.31937 24.027H8.57535C9.71874 24.027 10.6716 24.9729 10.6716 26.1081V26.4234C10.6716 27.5585 9.71874 28.5045 8.57535 28.5045Z" fill="black"/>
<path d="M17.0873 35.0631H2.22314V36.0091H17.0873V35.0631Z" fill="white"/>
<path d="M22.2961 36.3873H2.22314V37.6486H22.2961V36.3873Z" fill="white"/>
<path d="M25.7898 38.5946H2.22314V39.5406H25.7898V38.5946Z" fill="white"/>
<path d="M27.8227 28.5045C28.9454 28.5045 29.8554 27.601 29.8554 26.4865C29.8554 25.372 28.9454 24.4685 27.8227 24.4685C26.7001 24.4685 25.79 25.372 25.79 26.4865C25.79 27.601 26.7001 28.5045 27.8227 28.5045Z" fill="#8C8C8C"/>
<path d="M41.2256 42.7567C41.4797 44.2702 41.7338 45.7837 42.0514 47.2973" stroke="black" stroke-miterlimit="10" stroke-linecap="round"/>
<path d="M43.5127 42.3783C43.7668 44.1441 44.275 45.8468 44.9737 47.4233" stroke="black" stroke-miterlimit="10" stroke-linecap="round"/>
<path d="M99.9202 77C99.9202 77 84.802 77.5676 75.2737 73.1532C65.7454 68.7388 61.2988 61.991 61.2988 61.991C61.2988 61.991 70.2554 64.5135 76.4171 54.8649C82.5787 45.2162 82.4517 39.9189 82.4517 39.9189H99.9202" fill="#BEBEBE"/>
<path d="M78.1958 62.0541C79.5298 62.7478 80.6096 63.5045 81.753 64.009C87.7241 66.4685 94.2669 67.4775 100.683 66.8469" stroke="black" stroke-miterlimit="10" stroke-linecap="round"/>
</svg>
