<svg width="87" height="87" viewBox="0 0 87 87" fill="none" xmlns="http://www.w3.org/2000/svg">
<circle cx="43.0162" cy="43.0162" r="43.0162" fill="#FF0D22"/>
<g clip-path="url(#clip0)">
<path d="M61.8252 35.973C61.1354 31.5579 57.3079 28.1692 52.702 28.1692C50.9693 28.1692 49.3043 28.6486 47.8601 29.5427C45.6631 25.8504 41.7078 23.5527 37.3138 23.5527C30.5258 23.5527 25.0032 29.0754 25.0032 35.8633C25.0032 35.9053 25.0032 35.9489 25.0048 35.991C20.6422 36.7258 17.2065 40.5293 17.2065 45.0962C17.2065 50.1875 21.4507 54.3291 26.542 54.3291H60.3961C65.4874 54.3291 69.7316 50.1875 69.7316 45.0962C69.7316 40.4903 66.2403 36.6628 61.8252 35.973Z" fill="white"/>
</g>
<defs>
<clipPath id="clip0">
<rect width="52.525" height="52.525" fill="white" transform="translate(17.2065 12.6785)"/>
</clipPath>
</defs>
</svg>
