<svg width="94" height="90" viewBox="0 0 94 90" fill="none" xmlns="http://www.w3.org/2000/svg">
<path d="M49.8342 72.8622C51.8168 72.1379 65.7848 61.9975 69.9302 57.199C72.5435 54.1206 77.0494 48.8694 80.654 40.4492C84.7994 30.7615 86.7819 23.6995 85.7005 20.5306C84.529 16.8185 84.1685 16.2753 74.5261 32.3007C69.029 41.3546 63.8924 42.4411 59.3866 42.3505C40.9127 41.9884 27.3052 49.5937 27.3052 49.5937C27.3052 49.5937 41.9941 75.669 49.8342 72.8622Z" fill="#F6A398"/>
<path d="M92.6392 8.48887L68.5782 39.0006C67.9474 39.8154 66.5956 40.2681 65.6945 39.9965L48.9328 34.3831C48.0317 34.1115 47.7613 33.1155 48.3921 32.3007L72.4532 1.69843C73.084 0.883579 74.4357 0.430883 75.3369 0.7025L92.0985 6.31593C93.0898 6.67809 93.3602 7.67402 92.6392 8.48887Z" fill="#37474F"/>
<path d="M90.6568 5.86327L73.805 0.249839C72.9039 -0.0217788 71.5521 0.340378 70.9213 1.24577L46.8603 31.7575C46.2295 32.5723 46.4097 33.5683 47.3109 33.8399L64.0725 39.4533C64.9736 39.7249 66.3254 39.3628 66.9562 38.4574L91.0173 7.94567C91.8283 7.13082 91.5579 6.22542 90.6568 5.86327ZM66.776 37.1898C66.1452 38.0047 64.9736 38.4574 64.0725 38.0952L49.0231 33.1156C48.212 32.8439 48.0318 31.9385 48.6626 31.1237L71.1016 2.6944C72.3632 1.06469 73.1742 1.24577 73.9853 1.51739L76.9591 2.51332C77.1393 2.60386 77.1393 2.78494 76.9591 3.05655L76.869 3.14709C76.5085 3.69033 76.7789 3.78087 77.1393 3.87141L84.0783 6.22542C84.4388 6.31596 84.7992 6.49704 85.1597 5.95381L85.2498 5.86327C85.43 5.68219 85.7004 5.50111 85.8806 5.59165L88.8545 6.58758C89.6655 6.8592 90.2062 7.31189 89.0347 8.85106L66.776 37.1898Z" fill="#263238"/>
<path d="M82.1856 4.68628L80.2932 4.0525C80.2031 4.0525 80.2031 3.96196 80.2932 3.87142C80.3833 3.78088 80.3833 3.78088 80.4734 3.78088L82.3659 4.41466C82.456 4.41466 82.456 4.5052 82.3659 4.59574C82.2757 4.68628 82.1856 4.77681 82.1856 4.68628Z" fill="white"/>
<path d="M89.2149 8.76054L66.7759 37.1898C66.1451 38.0047 64.9736 38.4574 64.0724 38.0952L49.023 33.1156C48.212 32.844 48.0317 31.9386 48.6625 31.1237L71.1015 2.69442C72.3631 1.06471 73.1742 1.24579 73.9852 1.51741L76.959 2.51334C77.1393 2.60388 77.1393 2.78496 76.959 3.05658L76.8689 3.14711C76.5085 3.69035 76.7788 3.78089 77.1393 3.87143L84.0782 6.22545C84.4387 6.31599 84.7992 6.49706 85.1596 5.95383L85.2497 5.86329C85.43 5.68221 85.7003 5.50113 85.8806 5.59167L88.8544 6.5876C89.8457 6.85922 90.3864 7.31192 89.2149 8.76054Z" fill="white"/>
<path d="M89.2147 8.76058L87.5025 10.843L69.3892 4.8674L71.1014 2.785C72.363 1.15529 73.174 1.33637 73.9851 1.60799L76.9589 2.60392C77.1392 2.69446 77.1392 2.87553 76.9589 3.14715L76.8688 3.23769C76.5083 3.78093 76.7787 3.87146 77.1392 3.962L84.0781 6.31602C84.4386 6.40656 84.799 6.58764 85.1595 6.04441L85.2496 5.95387C85.4299 5.77279 85.7002 5.59171 85.8804 5.68225L88.8543 6.67818C89.8456 6.85926 90.3863 7.31195 89.2147 8.76058Z" fill="#FF0D22"/>
<path d="M72.0928 4.41467L71.9126 3.78089L72.7236 3.50928L72.8138 3.69036L72.0928 3.87143L72.1829 4.41467H72.0928Z" fill="white"/>
<path d="M87.5027 8.85106C87.5027 8.9416 87.4126 8.9416 87.3225 8.9416C87.2324 8.9416 87.2324 8.85106 87.3225 8.85106C87.3225 8.76053 87.4126 8.76053 87.5027 8.76053C87.5027 8.66999 87.5928 8.76053 87.5027 8.85106Z" fill="white"/>
<path d="M87.2327 9.12264C87.2327 9.21318 87.1426 9.21318 87.0524 9.21318C86.9623 9.21318 86.9623 9.12264 87.0524 9.12264C87.0524 9.0321 87.1426 9.0321 87.2327 9.0321C87.3228 9.0321 87.3228 9.12264 87.2327 9.12264Z" fill="white"/>
<path d="M86.9622 9.48483C86.9622 9.57537 86.8721 9.57537 86.7819 9.57537C86.6918 9.57537 86.6918 9.48483 86.7819 9.48483C86.7819 9.39429 86.8721 9.39429 86.9622 9.39429C87.0523 9.39429 87.0523 9.39429 86.9622 9.48483Z" fill="white"/>
<path d="M75.9677 2.96611C75.8776 3.05665 75.8776 3.05665 75.9677 2.96611C75.8776 2.96611 75.7875 2.87557 75.6974 2.78503C75.6073 2.78503 75.427 2.78503 75.3369 2.78503C75.3369 2.78503 75.3369 2.78503 75.427 2.78503H75.5171C75.6073 2.78503 75.6073 2.78503 75.6974 2.78503C75.6974 2.78503 75.6974 2.78503 75.7875 2.78503H75.8776C75.8776 2.78503 75.9677 2.78503 75.9677 2.87557C75.9677 2.87557 75.9677 2.87557 76.0578 2.96611C75.9677 2.87557 75.9677 2.96611 75.9677 2.96611Z" fill="white"/>
<path d="M75.3369 2.96615C75.3369 2.96615 75.3369 2.87561 75.3369 2.96615C75.427 2.87561 75.5171 2.87561 75.6073 2.87561C75.6974 2.87561 75.7875 2.96615 75.7875 3.05669H75.6974C75.6974 2.96615 75.6073 2.96615 75.6073 2.96615C75.5171 2.87561 75.427 2.87561 75.3369 2.96615Z" fill="white"/>
<path d="M75.6073 3.0566C75.6073 3.14714 75.6073 3.14714 75.6073 3.0566C75.5171 3.0566 75.5171 3.0566 75.427 3.0566H75.3369C75.3369 3.0566 75.3369 3.0566 75.3369 2.96606C75.5171 2.96606 75.6073 2.96606 75.6073 3.0566Z" fill="white"/>
<path d="M75.5173 3.14725C75.4272 3.14725 75.4272 3.14725 75.5173 3.14725C75.4272 3.14725 75.4272 3.14725 75.5173 3.14725C75.4272 3.05671 75.4272 3.05671 75.5173 3.14725C75.5173 3.05671 75.5173 3.14725 75.5173 3.14725Z" fill="white"/>
<path d="M73.0842 2.15121C73.1743 2.06067 73.2644 2.06067 73.2644 2.06067C73.3545 2.06067 73.3545 2.15121 73.2644 2.24175C73.1743 2.33229 73.0842 2.33229 73.0842 2.33229C72.9941 2.24175 72.9941 2.15121 73.0842 2.15121Z" fill="white"/>
<path d="M73.4448 2.24178C73.535 2.15125 73.6251 2.15125 73.6251 2.15125C73.7152 2.15125 73.7152 2.24178 73.6251 2.33232C73.5349 2.42286 73.4448 2.42286 73.4448 2.42286C73.4448 2.42286 73.3547 2.33232 73.4448 2.24178Z" fill="white"/>
<path d="M73.8052 2.42281C73.8953 2.33228 73.9854 2.33228 73.9854 2.33228C74.0755 2.33228 74.0755 2.42281 73.9854 2.51335H73.8953L73.8052 2.42281Z" fill="white"/>
<path d="M74.1655 2.51339C74.2556 2.42285 74.3458 2.42285 74.3458 2.42285C74.4359 2.42285 74.4359 2.51339 74.3458 2.60393C74.2556 2.69447 74.1655 2.69447 74.1655 2.69447C74.1655 2.60393 74.1655 2.60393 74.1655 2.51339Z" fill="white"/>
<path d="M74.5259 2.60384C74.616 2.51331 74.7061 2.51331 74.7061 2.51331C74.7962 2.51331 74.7962 2.60384 74.7061 2.69438C74.616 2.78492 74.5259 2.78492 74.5259 2.78492C74.5259 2.78492 74.5259 2.69438 74.5259 2.60384Z" fill="white"/>
<path d="M88.4943 7.76466L87.1426 7.31196L87.6833 6.58765L89.035 7.04034L88.4943 7.76466Z" fill="white"/>
<path d="M88.4043 7.13091L87.7735 6.94983L87.5933 7.22145L88.2241 7.40252L88.4043 7.13091Z" fill="white"/>
<path d="M88.5843 7.49305H88.4941L88.6744 7.22144L88.7645 7.31197L88.5843 7.49305Z" fill="white"/>
<path d="M51.6365 31.8481L51.4562 31.7575L51.0057 32.3007L50.8254 32.2102L51.0057 31.9386L50.5551 31.8481L50.3748 32.1197L50.1045 32.0291L50.5551 31.4859L50.3748 31.3954L51.4562 31.0332L51.6365 31.8481Z" fill="#EBEBEB"/>
<path d="M65.7849 36.1033L64.2529 35.5601L64.4332 35.379L65.875 35.8317L65.7849 36.1033Z" fill="#EBEBEB"/>
<path d="M65.4241 36.556L63.8921 36.0127L64.0723 35.8317L65.5142 36.3749L65.4241 36.556Z" fill="#EBEBEB"/>
<path d="M64.9736 37.0087L63.5317 36.4655L63.6219 36.2844L65.1538 36.8277L64.9736 37.0087Z" fill="#EBEBEB"/>
<path d="M58.395 34.021L57.6741 34.202L57.584 33.6588H57.6741L57.7642 34.1115L58.395 33.9304V34.021Z" fill="#EBEBEB"/>
<path d="M57.6744 35.1075C57.4941 35.1075 57.404 35.1075 57.2238 35.017C56.8633 34.9264 56.6831 34.6548 56.593 34.3832C56.5029 34.1116 56.593 33.7494 56.7732 33.3873C57.1337 32.844 57.9447 32.6629 58.4854 32.844C58.8459 32.9346 59.0261 33.2062 59.1162 33.4778C59.2063 33.7494 59.1162 34.1116 58.936 34.4737C58.6657 34.8359 58.125 35.1075 57.6744 35.1075ZM58.0348 33.7494C57.8546 33.7494 57.5843 33.84 57.4941 34.021C57.404 34.1116 57.404 34.1116 57.404 34.1116C57.6744 34.2021 58.0348 34.1116 58.2151 33.9305C58.3052 33.84 58.3052 33.84 58.3052 33.84C58.2151 33.7494 58.125 33.7494 58.0348 33.7494Z" fill="#EBEBEB"/>
<path d="M77.8604 6.04434C78.0406 5.77272 78.4011 5.68218 78.6714 5.77272C78.7615 5.77272 78.8516 5.86326 78.9418 5.9538C78.9418 5.9538 78.9418 6.04434 78.8516 6.04434C78.7615 6.04434 78.7615 6.04434 78.7615 6.04434C78.7615 5.9538 78.6714 5.9538 78.5813 5.86326C78.4912 5.86326 78.4011 5.86326 78.311 5.86326C78.2208 5.86326 78.1307 5.9538 78.0406 6.04434C77.9505 6.13488 77.9505 6.22542 77.9505 6.31596C77.9505 6.4065 78.0406 6.4065 78.1307 6.49703C78.2208 6.49703 78.311 6.49703 78.4011 6.49703C78.4912 6.49703 78.4912 6.49703 78.4912 6.58757C78.4912 6.58757 78.4912 6.67811 78.4011 6.67811C78.311 6.67811 78.1307 6.67811 78.0406 6.67811C77.7703 6.49703 77.6801 6.22542 77.8604 6.04434Z" fill="white"/>
<path d="M78.6714 6.67813L79.2121 5.95381C79.2121 5.95381 79.3022 5.86327 79.3022 5.95381C79.3022 5.95381 79.3923 6.04435 79.3022 6.04435L79.122 6.31597L79.4824 6.49705L79.6627 6.22543C79.6627 6.22543 79.7528 6.13489 79.7528 6.22543C79.7528 6.22543 79.8429 6.31597 79.7528 6.31597L79.3022 6.94974C79.3022 6.94974 79.2121 7.04028 79.2121 6.94974C79.2121 6.94974 79.122 6.85921 79.2121 6.85921L79.3923 6.58759L79.0319 6.49705L78.8516 6.76867C78.7615 6.76867 78.7615 6.85921 78.6714 6.67813C78.6714 6.76867 78.5813 6.76867 78.6714 6.67813Z" fill="white"/>
<path d="M80.1132 7.04023L79.7528 6.94969L79.5725 7.04023H79.4824V6.94969L80.2935 6.31592H80.3836C80.3836 6.31592 80.4737 6.31592 80.3836 6.40646L80.2033 7.22131L80.1132 7.31185C80.1132 7.31185 80.0231 7.31185 80.1132 7.22131V7.04023ZM80.1132 6.85915L80.2033 6.58754L79.933 6.76861L80.1132 6.85915Z" fill="white"/>
<path d="M81.2847 6.76864H81.1045L80.5638 7.40242C80.5638 7.40242 80.4736 7.49296 80.4736 7.40242C80.4736 7.40242 80.3835 7.31188 80.4736 7.31188L80.9242 6.6781L80.744 6.58757C80.744 6.58757 80.6539 6.49703 80.744 6.49703C80.744 6.49703 80.8341 6.40649 80.8341 6.49703L81.3748 6.6781C81.3748 6.6781 81.4649 6.76864 81.3748 6.76864C81.3748 6.76864 81.3748 6.85918 81.2847 6.76864Z" fill="white"/>
<path d="M62 17.3617L74.9767 21.7076L77.7703 18.086L64.8837 13.8307L62 17.3617Z" fill="#455A64"/>
<path d="M76.1481 22.1603L74.9766 21.7076L75.7876 20.6211L76.1481 22.1603Z" fill="#455A64"/>
<path d="M76.5087 18.5387L65.064 14.736V14.6455L76.5989 18.5387H76.5087Z" fill="white"/>
<path d="M73.8051 18.1766L64.7935 15.0982V15.0077L73.8952 18.086L73.8051 18.1766Z" fill="white"/>
<path d="M74.7062 19.3535L64.1626 15.8225H64.2527L74.7062 19.263V19.3535Z" fill="white"/>
<path d="M75.3368 20.0779L63.8921 16.1847H63.9822L75.427 19.9873L75.3368 20.0779Z" fill="white"/>
<path d="M75.0668 20.4401L63.6221 16.5469L75.0668 20.3495V20.4401Z" fill="white"/>
<path d="M71.5521 19.7157L63.3516 16.9089L71.6423 19.6251L71.5521 19.7157Z" fill="white"/>
<path d="M55.3311 25.8724L68.3078 30.2183L71.1014 26.5967L58.2148 22.2509L55.3311 25.8724Z" fill="#455A64"/>
<path d="M69.4791 30.5804L68.3076 30.2183L69.1187 29.0413L69.4791 30.5804Z" fill="#455A64"/>
<path d="M69.8398 27.0494L58.395 23.2468V23.1562L69.8398 26.9589V27.0494Z" fill="white"/>
<path d="M67.1361 26.5968L58.1245 23.609V23.5184L67.2263 26.5062L67.1361 26.5968Z" fill="white"/>
<path d="M68.0377 27.8642L57.4941 24.3332L57.5843 24.2427L68.0377 27.7737V27.8642Z" fill="white"/>
<path d="M68.6684 28.498L57.2236 24.6954V24.6049L68.7585 28.4075L68.6684 28.498Z" fill="white"/>
<path d="M68.3979 28.8602L56.9531 25.0576V24.967L68.3979 28.7697V28.8602Z" fill="white"/>
<path d="M64.8835 28.2265L56.5928 25.4198L56.6829 25.3292L64.9736 28.1359L64.8835 28.2265Z" fill="white"/>
<path d="M81.8254 15.0077L68.8486 10.6618L71.2818 7.5835L84.1684 11.9294L81.8254 15.0077Z" fill="#FF0D22"/>
<path d="M67.6772 10.2091L68.8488 10.6618L69.7499 9.57532L67.6772 10.2091Z" fill="#FF0D22"/>
<path d="M81.0142 11.6577L71.4619 8.48885L71.552 8.39832L81.1044 11.6577H81.0142Z" fill="white"/>
<path d="M82.6362 12.6537L71.1914 8.85104L71.2815 8.7605L82.7263 12.6537H82.6362Z" fill="white"/>
<path d="M82.3662 13.1063L70.9214 9.21313H71.0115L82.4563 13.0158L82.3662 13.1063Z" fill="white"/>
<path d="M81.1945 13.1063L70.6509 9.57532L81.1945 13.1063Z" fill="white"/>
<path d="M81.8251 13.8307L70.3804 9.9375L81.8251 13.7401V13.8307Z" fill="white"/>
<path d="M78.4909 13.1969L70.02 10.2997H70.1101L78.5811 13.1064L78.4909 13.1969Z" fill="white"/>
<path d="M79.6623 17.7239L66.6855 13.378L68.4879 11.1145L81.3745 15.4604L79.6623 17.7239Z" fill="#FF0D22"/>
<path d="M65.5142 13.0158L66.6857 13.378L67.5868 12.2915L65.5142 13.0158Z" fill="#FF0D22"/>
<path d="M80.2036 15.8225L68.7588 12.0199V11.9293L80.2036 15.732V15.8225Z" fill="white"/>
<path d="M77.8604 15.5509L68.4883 12.382V12.2915L77.8604 15.4604V15.5509Z" fill="white"/>
<path d="M78.4913 16.1847L68.1279 12.7442L68.218 12.6537L78.5814 16.1847H78.4913Z" fill="white"/>
<path d="M75.8778 15.8225L67.8574 13.1063L67.9475 13.0157L75.8778 15.7319V15.8225Z" fill="white"/>
<path d="M72.9938 26.144L60.0171 21.7981L62.5403 18.6293L75.427 22.9752L72.9938 26.144Z" fill="#DBDBDB"/>
<path d="M58.8457 21.436L60.0172 21.7981L60.9184 20.7117L58.8457 21.436Z" fill="#DBDBDB"/>
<path d="M72.7236 24.2427L61.9097 20.6211H61.9998L72.8137 24.1521L72.7236 24.2427Z" fill="white"/>
<path d="M71.5524 24.3332L61.6396 20.9833H61.7298L71.6426 24.2427L71.5524 24.3332Z" fill="white"/>
<path d="M72.7237 23.3373L62.5405 19.8968V19.8063L72.7237 23.2468V23.3373Z" fill="white"/>
<path d="M74.0756 23.3373L62.811 19.5346V19.4441L74.1657 23.2467L74.0756 23.3373Z" fill="white"/>
<path d="M71.6424 24.7859L61.3691 21.3455L71.7325 24.7859H71.6424Z" fill="white"/>
<path d="M66.6857 34.1114L53.709 29.8561L55.7817 27.2305L68.7584 31.4858L66.6857 34.1114Z" fill="#FF0D22"/>
<path d="M52.5376 29.4034L53.7091 29.8561L54.6103 28.7697L52.5376 29.4034Z" fill="#FF0D22"/>
<path d="M67.497 31.848L56.0522 28.0454L56.1424 27.9548L67.5871 31.848H67.497Z" fill="white"/>
<path d="M67.2265 32.2102L55.7817 28.4076L55.8719 28.317L67.3166 32.2102H67.2265Z" fill="white"/>
<path d="M66.0548 32.3008L55.5112 28.7697L55.6013 28.6792L66.145 32.2102L66.0548 32.3008Z" fill="white"/>
<path d="M66.686 33.025L55.2412 29.1318L66.686 32.9345V33.025Z" fill="white"/>
<path d="M63.3515 32.3913L54.9707 29.494L63.4416 32.3007L63.3515 32.3913Z" fill="white"/>
<path d="M61.6392 42.26C56.9532 42.3506 72.0927 32.844 72.3631 27.5022C72.6334 22.1604 67.4067 23.8806 63.3515 26.8684C49.2032 37.2804 38.4794 36.8277 31.3602 46.787C24.241 56.7463 61.6392 42.26 61.6392 42.26Z" fill="#F6A398"/>
<path d="M53.2589 72.5906C58.2153 69.2407 66.8664 62.5408 69.9304 59.0098C72.5437 55.9314 77.0496 50.6801 80.6542 42.26C84.7996 32.5723 86.7821 25.5103 85.7007 22.3414C84.5292 18.6293 84.1687 18.086 74.5263 34.1115C69.9304 41.7168 65.5147 43.7086 61.5496 44.0708C57.0437 44.0708 72.0932 34.6547 72.2734 29.3129C72.5437 23.9711 67.317 25.6913 63.2618 28.6791C50.1048 38.3668 40.0118 38.6384 32.8926 46.6059" stroke="black" stroke-miterlimit="10"/>
<path d="M32.9825 46.5154C32.4418 47.1492 31.9011 47.7829 31.3604 48.5072C30.9999 48.9599 30.8197 49.3221 30.6395 49.6843C28.4767 50.5896 27.3052 51.2234 27.3052 51.2234" stroke="black" stroke-miterlimit="10"/>
<path d="M47.5813 35.7412C44.5173 36.5561 41.6336 37.552 38.84 39.1817C36.3168 40.6303 34.3342 42.8033 32.5319 45.0667C32.4418 45.1573 32.622 45.3384 32.7121 45.2478C36.497 40.5398 42.1743 38.1858 47.6714 35.9223C47.6714 35.8318 47.6714 35.7412 47.5813 35.7412Z" fill="#263238"/>
<path d="M29.8287 85.8999C27.0351 86.4431 23.6107 87.1674 19.9159 87.8917L7.0293 53.849C10.3636 53.1247 13.788 52.2193 16.6717 51.495C20.6369 61.907 25.413 74.4919 29.8287 85.8999Z" fill="#EBEBEB"/>
<path d="M16.0407 88.616C14.9593 88.7971 13.968 88.9782 12.8866 89.1593L0 55.2976C0.991279 55.1166 1.98256 54.9355 3.06395 54.7544C7.02907 64.8948 11.7151 77.2081 16.0407 88.616Z" fill="#EBEBEB"/>
<path d="M28.3866 80.0148C27.936 78.8378 27.4854 77.6608 27.1249 76.4838C26.2238 74.1298 20.997 60.0057 18.654 55.5692C18.5639 55.4787 18.3837 55.5692 18.4738 55.6598C19.7354 60.4584 25.4127 74.4014 26.3139 76.6649C26.7645 77.8419 27.3052 79.0189 27.7558 80.1959C28.2965 81.3729 28.9273 82.4594 29.3778 83.6364C29.468 83.7269 29.6482 83.7269 29.5581 83.5458C29.0174 82.3688 28.747 81.1918 28.3866 80.0148Z" fill="#263238"/>
</svg>
