<svg width="52" height="52" viewBox="0 0 52 52" fill="none" xmlns="http://www.w3.org/2000/svg">
<path d="M3.11828 47.1556V47.037C3.11828 46.9185 3.11828 46.8 3.11828 46.6815C3.11828 46.2074 3.11828 45.7333 3.11828 45.2593C3.11828 44.6667 3.23656 43.9556 3.23656 43.363C3.23656 42.7704 3.35484 42.2963 3.35484 41.7037C3.47312 41.1111 3.47312 40.637 3.5914 40.0444C3.70968 39.4519 3.82796 38.8593 3.82796 38.1481C3.94624 37.2 4.1828 36.1333 4.41935 35.1852C5.01075 33.5259 5.48387 31.7481 5.95699 29.9704C6.90323 26.8889 8.2043 24.0444 9.74194 21.3185C11.2796 18.4741 13.2903 15.9852 15.5376 13.6148C18.2581 10.7704 21.4516 8.51852 24.8817 6.74074C27.3656 5.43704 29.8495 4.48889 32.5699 3.77778C33.9892 3.42222 35.4086 3.06667 36.828 2.82963C37.6559 2.71111 38.4839 2.59259 39.4301 2.47407C40.1398 2.35556 40.8495 2.35556 41.5591 2.23704C42.2688 2.23704 42.8602 2.11852 43.5699 2.11852C44.6344 2 45.6989 2 46.7634 2C46.8817 2 46.8817 2 47 2V2.11852C47 2.23704 47 2.23704 47 2.35556C47 18.1185 47 33.763 47 49.5259C47 49.6444 47 49.763 47 49.8815H46.8817C46.7634 49.8815 46.7634 49.8815 46.6452 49.8815C43.5699 49.8815 40.6129 49.8815 37.5376 49.8815C37.4194 49.8815 37.3011 49.8815 37.1828 49.8815C37.1828 49.763 37.1828 49.763 37.1828 49.763C37.1828 49.6444 37.1828 49.6444 37.1828 49.5259C37.1828 44.0741 37.1828 38.7407 37.1828 33.2889C37.1828 33.1704 37.1828 33.0519 37.1828 32.9333H37.0645C36.9462 32.9333 36.9462 32.9333 36.828 32.9333C30.5591 32.9333 24.2903 32.9333 18.0215 32.9333C17.9032 32.9333 17.7849 32.9333 17.6667 32.9333C17.6667 33.0519 17.6667 33.0519 17.6667 33.1704C17.5484 34 17.4301 34.9481 17.1935 35.7778C17.0753 36.4889 16.957 37.3185 16.8387 38.0296C16.7204 38.5037 16.7204 38.9778 16.7204 39.5704C16.7204 40.163 16.6022 40.7556 16.6022 41.3481C16.6022 41.8222 16.4839 42.2963 16.4839 42.7704C16.4839 43.6 16.3656 44.3111 16.3656 45.1407C16.3656 46.0889 16.3656 46.9185 16.2473 47.8667C16.2473 48.4593 16.2473 49.1704 16.2473 49.763C16.2473 49.8815 16.2473 49.8815 16.2473 50H16.129C16.0108 50 16.0108 50 15.8925 50C11.7527 50 7.6129 50 3.35484 50C3.23656 50 3.11828 50 3 50C3 49.8815 3 49.8815 3 49.763C3 49.6444 3 49.4074 3 49.2889C3.11828 49.0518 3.11828 48.9333 3.11828 48.9333C3.11828 48.3407 3.11828 47.7481 3.11828 47.1556ZM18.9677 27.9556C18.9677 27.9556 19.086 27.9556 18.9677 27.9556C25.1183 27.9556 31.1505 27.9556 37.1828 27.9556C37.1828 27.9556 37.1828 27.9556 37.3011 27.9556C37.3011 27.837 37.3011 27.7185 37.3011 27.6C37.3011 20.4889 37.3011 13.4963 37.3011 6.38518C37.3011 6.26667 37.3011 6.26667 37.3011 6.14815V6.02963H37.1828C35.5269 6.5037 33.9892 7.21481 32.4516 8.04444C30.2043 9.34815 28.1936 11.1259 26.4194 13.1407C25 14.8 23.6989 16.6963 22.6344 18.7111C21.5699 20.7259 20.7419 22.7407 20.0323 24.8741C19.7957 25.7037 19.4409 26.6519 19.2043 27.4815C18.9677 27.7185 18.9677 27.837 18.9677 27.9556Z" fill="#556EE1"/>
</svg>
