<svg width="53" height="52" viewBox="0 0 53 52" fill="none" xmlns="http://www.w3.org/2000/svg">
<path d="M26.2358 38.25C27.7891 38.25 29.0483 36.9908 29.0483 35.4375C29.0483 33.8842 27.7891 32.625 26.2358 32.625C24.6825 32.625 23.4233 33.8842 23.4233 35.4375C23.4233 36.9908 24.6825 38.25 26.2358 38.25Z" fill="#4676F2"/>
<path d="M52.4859 25.125C52.483 23.2329 51.9086 21.3859 50.8379 19.826C49.7673 18.266 48.2504 17.0658 46.4859 16.3828C46.2894 16.3081 46.1236 16.1695 46.0153 15.9893C45.907 15.8091 45.8624 15.5976 45.8887 15.389C45.9752 14.7289 45.9191 14.058 45.7244 13.4214C45.5297 12.7848 45.2008 12.1973 44.7599 11.6985C44.319 11.1997 43.7764 10.8011 43.1685 10.5297C42.5606 10.2583 41.9016 10.1203 41.2359 10.125C40.582 10.1196 39.9348 10.2569 39.3394 10.5271C39.2146 10.5844 39.0787 10.6136 38.9414 10.6126C38.8041 10.6116 38.6686 10.5804 38.5447 10.5213C38.4207 10.4622 38.3113 10.3766 38.2241 10.2705C38.1369 10.1644 38.074 10.0405 38.04 9.90746C37.367 7.28818 35.8419 4.96714 33.7049 3.30981C31.5679 1.65247 28.9403 0.752991 26.2359 0.752991C23.5316 0.752991 20.904 1.65247 18.767 3.30981C16.63 4.96714 15.1049 7.28818 14.4319 9.90746C14.3978 10.0405 14.335 10.1644 14.2478 10.2705C14.1606 10.3766 14.0511 10.4622 13.9272 10.5213C13.8032 10.5804 13.6678 10.6116 13.5305 10.6126C13.3932 10.6136 13.2573 10.5844 13.1325 10.5271C12.537 10.2569 11.8898 10.1196 11.2359 10.125C10.5706 10.1209 9.91216 10.2594 9.30485 10.5312C8.69754 10.8029 8.15547 11.2015 7.71509 11.7003C7.27472 12.199 6.94626 12.7862 6.75182 13.4225C6.55737 14.0588 6.50144 14.7293 6.5878 15.389C6.61412 15.5976 6.56955 15.8091 6.46124 15.9893C6.35293 16.1695 6.18718 16.3081 5.99061 16.3828C4.02665 17.143 2.37587 18.5424 1.30432 20.3554C0.232758 22.1684 -0.19716 24.2894 0.0838482 26.3765C0.364856 28.4637 1.34042 30.3954 2.85332 31.8604C4.36622 33.3254 6.32833 34.2384 8.42343 34.4522V32.625C8.42343 32.3763 8.5222 32.1379 8.69801 31.962C8.87383 31.7862 9.11229 31.6875 9.36093 31.6875H12.6778C12.9852 30.5743 13.4295 29.5036 14.0006 28.5L11.6512 26.1562C11.4755 25.9804 11.3768 25.742 11.3768 25.4934C11.3768 25.2448 11.4755 25.0064 11.6512 24.8306L15.6262 20.8556C15.8054 20.6862 16.0425 20.5918 16.2891 20.5918C16.5356 20.5918 16.7727 20.6862 16.9519 20.8556L19.2984 23.2022C20.3021 22.631 21.3728 22.1867 22.4859 21.8793V18.5625C22.4859 18.3138 22.5847 18.0754 22.7605 17.8995C22.9363 17.7237 23.1748 17.625 23.4234 17.625H29.0484C29.2971 17.625 29.5355 17.7237 29.7113 17.8995C29.8872 18.0754 29.9859 18.3138 29.9859 18.5625V21.8793C31.099 22.1868 32.1697 22.6312 33.1734 23.2022L35.5172 20.8528C35.693 20.677 35.9314 20.5783 36.18 20.5783C36.4286 20.5783 36.667 20.677 36.8428 20.8528L40.8178 24.8278C40.9936 25.0036 41.0923 25.242 41.0923 25.4906C41.0923 25.7392 40.9936 25.9776 40.8178 26.1534L38.4712 28.5C39.0424 29.5036 39.4867 30.5743 39.7941 31.6875H43.1109C43.3596 31.6875 43.598 31.7862 43.7738 31.962C43.9497 32.1379 44.0484 32.3763 44.0484 32.625V34.4456C46.3652 34.2275 48.5163 33.1497 50.078 31.4245C51.6397 29.6994 52.4988 27.452 52.4859 25.125Z" fill="#4676F2"/>
<path d="M26.2358 27.9375C24.7525 27.9375 23.3024 28.3774 22.0691 29.2015C20.8357 30.0256 19.8744 31.1969 19.3067 32.5674C18.7391 33.9378 18.5906 35.4458 18.88 36.9007C19.1693 38.3555 19.8836 39.6919 20.9325 40.7408C21.9814 41.7897 23.3178 42.504 24.7727 42.7934C26.2275 43.0828 27.7355 42.9343 29.106 42.3666C30.4764 41.7989 31.6478 40.8376 32.4719 39.6043C33.296 38.3709 33.7358 36.9209 33.7358 35.4375C33.7336 33.4491 32.9427 31.5427 31.5367 30.1367C30.1306 28.7306 28.2243 27.9397 26.2358 27.9375ZM26.2358 40.125C25.3087 40.125 24.4025 39.8501 23.6316 39.335C22.8608 38.8199 22.2599 38.0879 21.9052 37.2313C21.5504 36.3748 21.4575 35.4323 21.6384 34.523C21.8193 33.6137 22.2657 32.7785 22.9213 32.1229C23.5768 31.4674 24.4121 31.0209 25.3214 30.8401C26.2306 30.6592 27.1731 30.752 28.0297 31.1068C28.8862 31.4616 29.6183 32.0624 30.1334 32.8333C30.6484 33.6041 30.9233 34.5104 30.9233 35.4375C30.9219 36.6802 30.4275 37.8717 29.5488 38.7504C28.67 39.6292 27.4786 40.1235 26.2358 40.125Z" fill="#4676F2"/>
<path d="M42.1733 33.5625H39.0608C38.847 33.5625 38.6396 33.4895 38.473 33.3555C38.3064 33.2214 38.1907 33.0345 38.1449 32.8256C37.8366 31.4185 37.2794 30.0777 36.4996 28.8666C36.3839 28.6864 36.3334 28.4721 36.3564 28.2592C36.3794 28.0464 36.4746 27.8478 36.6262 27.6966L38.8321 25.4906L36.1827 22.8412L33.9768 25.0472C33.8255 25.1983 33.627 25.2932 33.4144 25.3161C33.2017 25.3389 32.9877 25.2884 32.8077 25.1728C31.5952 24.3951 30.254 23.8393 28.8468 23.5312C28.6376 23.4852 28.4505 23.3689 28.3166 23.2018C28.1827 23.0346 28.1101 22.8267 28.1108 22.6125V19.5H24.3608V22.6125C24.3607 22.826 24.2877 23.0331 24.1539 23.1995C24.02 23.3659 23.8334 23.4816 23.6249 23.5275C22.2175 23.8367 20.8763 24.3938 19.664 25.1728C19.484 25.2884 19.2699 25.3389 19.0573 25.3161C18.8446 25.2932 18.6462 25.1983 18.4949 25.0472L16.289 22.8412L13.6396 25.4906L15.8455 27.6966C15.997 27.8478 16.0922 28.0464 16.1153 28.2592C16.1383 28.4721 16.0878 28.6864 15.9721 28.8666C15.1932 30.0779 14.637 31.4187 14.3296 32.8256C14.2837 33.035 14.1675 33.2223 14.0004 33.3563C13.8332 33.4904 13.6251 33.5632 13.4108 33.5625H10.2983V37.3125H13.4108C13.6247 37.3125 13.8321 37.3855 13.9987 37.5195C14.1652 37.6536 14.281 37.8405 14.3268 38.0494C14.6351 39.4565 15.1922 40.7973 15.9721 42.0084C16.0878 42.1886 16.1383 42.4029 16.1153 42.6158C16.0922 42.8286 15.997 43.0272 15.8455 43.1784L13.6396 45.3844L16.289 48.0338L18.4949 45.8278C18.6462 45.6767 18.8446 45.5818 19.0573 45.5589C19.2699 45.5361 19.484 45.5866 19.664 45.7022C20.8765 46.4799 22.2177 47.0357 23.6249 47.3438C23.8341 47.3898 24.0212 47.5061 24.155 47.6732C24.2889 47.8404 24.3616 48.0483 24.3608 48.2625V51.375H28.1108V48.2625C28.111 48.049 28.184 47.8419 28.3178 47.6755C28.4516 47.5091 28.6382 47.3934 28.8468 47.3475C30.2542 47.0383 31.5954 46.4812 32.8077 45.7022C32.9877 45.5866 33.2017 45.5361 33.4144 45.5589C33.627 45.5818 33.8255 45.6767 33.9768 45.8278L36.1827 48.0338L38.8321 45.3844L36.6262 43.1784C36.4746 43.0272 36.3794 42.8286 36.3564 42.6158C36.3334 42.4029 36.3839 42.1886 36.4996 42.0084C37.2785 40.7971 37.8347 39.4563 38.1421 38.0494C38.1879 37.84 38.3041 37.6527 38.4713 37.5187C38.6385 37.3846 38.8465 37.3118 39.0608 37.3125H42.1733V33.5625ZM26.2358 44.8125C24.3816 44.8125 22.5691 44.2627 21.0274 43.2325C19.4857 42.2024 18.284 40.7382 17.5745 39.0252C16.8649 37.3121 16.6792 35.4271 17.041 33.6085C17.4027 31.79 18.2956 30.1195 19.6067 28.8084C20.9178 27.4973 22.5883 26.6044 24.4069 26.2426C26.2254 25.8809 28.1104 26.0666 29.8235 26.7761C31.5366 27.4857 33.0007 28.6873 34.0309 30.229C35.061 31.7707 35.6108 33.5833 35.6108 35.4375C35.6081 37.9231 34.6195 40.306 32.862 42.0636C31.1044 43.8212 28.7214 44.8098 26.2358 44.8125Z" fill="#4676F2"/>
</svg>
