<svg width="536" height="145" viewBox="0 0 536 145" fill="none" xmlns="http://www.w3.org/2000/svg">
<path d="M-0.000441939 135.827V135.475C-0.000441939 135.122 -0.000441939 134.769 -0.000441939 134.416C-0.000441939 133.005 -0.000441939 131.594 -0.000441939 130.183C-0.000441939 128.419 0.35312 126.302 0.35312 124.538C0.35312 122.774 0.706682 121.363 0.706682 119.599C1.06024 117.835 1.06024 116.423 1.41381 114.659C1.76737 112.895 2.12093 111.131 2.12093 109.015C2.47449 106.192 3.18162 103.017 3.88874 100.195C5.65655 95.2555 7.0708 89.9636 8.48505 84.6716C11.3135 75.4988 15.2027 67.0317 19.799 58.9173C24.3953 50.4502 30.4059 43.0414 37.1236 35.9855C45.2555 27.5183 54.8017 20.8151 65.055 15.5232C72.4798 11.6424 79.9046 8.82001 88.0365 6.70323C92.2792 5.64483 96.522 4.58644 100.765 3.88084C103.24 3.52804 105.715 3.17525 108.543 2.82245C110.664 2.46965 112.786 2.46965 114.907 2.11685C117.029 2.11685 118.796 1.76405 120.918 1.76405C124.1 1.41125 127.282 1.41125 130.464 1.41125C130.817 1.41125 130.817 1.41125 131.171 1.41125V1.76405C131.171 2.11685 131.171 2.11685 131.171 2.46965C131.171 49.3918 131.171 95.9611 131.171 142.883C131.171 143.236 131.171 143.589 131.171 143.942H130.817C130.464 143.942 130.464 143.942 130.11 143.942C120.918 143.942 112.079 143.942 102.886 143.942C102.533 143.942 102.179 143.942 101.825 143.942C101.825 143.589 101.825 143.589 101.825 143.589C101.825 143.236 101.825 143.236 101.825 142.883C101.825 126.655 101.825 110.779 101.825 94.5499C101.825 94.1971 101.825 93.8443 101.825 93.4915H101.472C101.118 93.4915 101.118 93.4915 100.765 93.4915C82.0259 93.4915 63.2872 93.4915 44.5484 93.4915C44.1948 93.4915 43.8412 93.4915 43.4877 93.4915C43.4877 93.8443 43.4877 93.8444 43.4877 94.1972C43.1341 96.6667 42.7806 99.4891 42.0734 101.959C41.7199 104.075 41.3663 106.545 41.0127 108.662C40.6592 110.073 40.6592 111.484 40.6592 113.248C40.6592 115.012 40.3056 116.776 40.3056 118.54C40.3056 119.951 39.9521 121.363 39.9521 122.774C39.9521 125.243 39.5985 127.36 39.5985 129.83C39.5985 132.652 39.5985 135.122 39.2449 137.944C39.2449 139.708 39.2449 141.825 39.2449 143.589C39.2449 143.942 39.2449 143.942 39.2449 144.294H38.8914C38.5378 144.294 38.5378 144.294 38.1843 144.294C25.8096 144.294 13.4349 144.294 0.706682 144.294C0.35312 144.294 -0.000441939 144.294 -0.354004 144.294C-0.354004 143.942 -0.354004 143.942 -0.354004 143.589C-0.354004 143.236 -0.354004 142.53 -0.354004 142.178C-0.000441939 141.472 -0.000441939 141.119 -0.000441939 141.119C-0.000441939 139.355 -0.000441939 137.591 -0.000441939 135.827ZM47.3769 78.674C47.3769 78.674 47.7304 78.674 47.3769 78.674C65.7621 78.674 83.7937 78.674 101.825 78.674C101.825 78.674 101.825 78.674 102.179 78.674C102.179 78.3212 102.179 77.9684 102.179 77.6156C102.179 56.4478 102.179 35.6327 102.179 14.4648C102.179 14.112 102.179 14.112 102.179 13.7592V13.4064H101.825C96.8755 14.8176 92.2792 16.9344 87.6829 19.404C80.9652 23.2847 74.9547 28.5767 69.6513 34.5743C65.4085 39.5134 61.5193 45.1582 58.3373 51.1558C55.1552 57.1534 52.6803 63.1509 50.5589 69.5013C49.8518 71.9709 48.7911 74.7933 48.084 77.2628C47.3769 77.9684 47.3769 78.3212 47.3769 78.674Z" fill="#FF0D22"/>
<path d="M434.174 13.4064C434.174 13.7592 434.174 13.7592 434.174 13.7592C434.174 14.112 434.174 14.4648 434.174 14.8176C434.174 57.5062 434.174 100.195 434.174 142.883C434.174 143.236 434.174 143.589 434.174 143.942H433.821C433.467 143.942 433.467 143.942 433.114 143.942C423.921 143.942 415.082 143.942 405.889 143.942C405.536 143.942 405.182 143.942 405.182 143.942C405.182 143.942 405.182 143.942 405.182 143.589C405.182 96.314 405.182 49.039 405.182 1.41127C405.182 1.41127 405.182 1.41127 405.182 1.05847H405.536C407.657 1.05847 409.778 1.05847 411.9 1.05847C412.96 1.05847 414.375 1.05847 415.435 1.05847C417.203 1.05847 419.325 1.41127 421.092 1.41127C422.507 1.41127 424.274 1.76407 425.689 1.76407C427.457 2.11687 429.578 2.11687 431.346 2.46966C433.467 2.82246 435.588 3.17526 438.063 3.52806C450.792 5.99764 463.166 10.2312 474.48 16.5816C487.562 23.9903 498.876 33.8687 508.069 45.8638C513.372 52.9198 517.968 60.6814 521.858 69.1485C525.04 76.2045 527.515 83.2604 529.636 90.6692C531.05 95.6084 532.111 100.9 533.172 105.84C533.525 108.662 534.232 111.131 534.586 113.954C534.939 116.071 535.293 118.187 535.293 120.304C535.646 122.068 535.646 123.832 535.646 125.596C536 131.241 536 136.886 536 142.531C536 142.883 536 142.883 536 143.236H535.646H535.293C522.918 143.236 510.19 143.236 497.815 143.236C497.462 143.236 497.108 143.236 496.755 143.236C496.755 142.883 496.755 142.883 496.755 142.531C496.755 139.708 496.755 136.533 496.755 133.711C496.755 130.888 496.401 128.066 496.401 125.243C496.401 124.185 496.401 123.127 496.048 122.068C496.048 120.304 495.694 118.893 495.694 117.129C495.694 116.071 495.34 114.659 495.34 113.601C495.34 112.543 494.987 111.131 494.987 110.073C494.987 108.662 494.633 107.603 494.633 106.192C494.28 104.781 494.28 103.017 493.926 101.606C493.573 99.8419 493.573 98.4307 493.219 96.6668C492.865 93.8444 492.158 91.022 491.805 88.1996C490.744 83.966 489.683 79.3796 488.623 75.1461C486.501 68.4429 484.38 61.7397 481.198 55.3894C478.369 49.039 474.834 43.3942 470.591 37.7495C465.995 31.7519 461.045 26.8127 455.034 22.5792C449.024 18.3456 442.66 15.1704 435.588 13.0536C434.881 13.4064 434.528 13.4064 434.174 13.4064Z" fill="#FF0D22"/>
<path d="M185.266 29.6351C184.912 29.6351 184.912 29.6351 184.559 29.6351C175.366 32.8102 166.527 36.691 158.395 41.983C152.738 45.511 147.788 49.3917 142.838 53.6253L142.485 53.9781V53.6253C142.485 53.2725 142.485 53.2725 142.485 52.9197C142.485 39.1606 142.485 25.4015 142.485 11.9951C142.485 11.6424 142.485 11.2896 142.485 10.9368C142.838 10.9368 142.838 10.584 143.192 10.584C146.728 9.52556 150.263 8.46717 153.799 7.40877C158.042 6.35038 162.638 5.29199 166.881 4.58639C169.356 4.23359 172.184 3.528 174.659 3.1752C177.134 2.8224 179.609 2.4696 182.084 2.1168C184.559 1.76401 186.68 1.76401 189.155 1.41121C191.276 1.05841 193.398 1.05841 195.519 0.705611C197.641 0.705611 199.762 0.352813 202.237 0.352813C204.358 0.352813 206.833 1.48714e-05 208.955 1.48714e-05C213.904 1.48714e-05 218.501 -0.352783 223.451 -0.352783C225.572 -0.352783 228.047 -0.352783 230.168 -0.352783C232.643 -0.352783 235.118 -0.352783 237.947 1.48714e-05C239.714 1.48714e-05 241.482 1.48714e-05 242.896 0.352813C245.371 0.352813 247.493 0.705611 249.968 0.705611C251.382 0.705611 252.796 1.05841 254.21 1.05841C255.625 1.05841 256.685 1.41121 258.1 1.41121C259.16 1.41121 260.575 1.76401 261.635 1.76401C261.989 1.76401 262.342 1.76401 262.696 1.76401C263.05 3.1752 262.696 4.93919 263.05 6.35038C263.05 7.76157 263.05 9.52556 263.403 10.9368C263.403 12.3479 263.757 14.1119 263.403 15.5231C263.05 15.5231 262.696 15.5231 262.342 15.8759C260.221 15.8759 258.1 16.2287 255.978 16.2287C253.857 16.2287 251.382 16.5815 249.261 16.5815C247.846 16.5815 246.432 16.9343 244.664 16.9343C243.25 16.9343 242.189 17.2871 240.775 17.2871C239.714 17.2871 238.3 17.6399 237.239 17.6399C236.179 17.6399 235.118 17.9927 234.057 17.9927C232.997 17.9927 231.936 18.3455 231.229 18.3455C229.815 18.3455 228.754 18.6983 227.34 18.6983C225.926 19.0511 224.511 19.0511 223.097 19.4039C220.976 20.8151 219.208 21.1679 217.086 21.5207C216.026 21.5207 215.319 21.8735 214.258 21.8735V22.2263C214.258 22.5791 214.258 22.9319 214.258 22.9319C214.258 62.7981 214.258 102.664 214.258 142.53C214.258 142.883 214.258 143.236 214.258 143.589H213.904C213.551 143.589 213.551 143.589 213.197 143.589C204.005 143.589 195.166 143.589 185.973 143.589C185.619 143.589 185.266 143.589 184.912 143.589V143.236C184.912 142.883 184.912 142.883 184.912 142.53C184.912 105.134 184.912 67.7372 184.912 30.3407C185.266 30.3407 185.266 29.9879 185.266 29.6351Z" fill="#FF0D22"/>
<path d="M270.121 122.774C272.596 120.304 275.425 117.834 277.899 115.365C278.253 115.365 278.253 115.718 278.253 116.07C280.374 118.893 282.849 121.362 285.324 123.832C290.628 128.418 296.992 131.241 303.709 132.652C306.184 133.005 308.306 133.358 310.781 133.358C312.195 133.358 313.963 133.358 315.377 133.358C318.913 133.005 322.802 132.299 326.337 131.241C335.884 128.066 343.308 122.068 348.612 113.601C351.44 109.015 353.562 104.075 354.622 98.7834C355.33 95.6082 355.683 92.433 355.683 89.2578C355.683 87.4938 355.683 86.0827 355.33 84.6715C354.976 81.1435 353.915 77.6155 352.855 74.4403C351.794 71.6179 350.733 69.1483 348.965 66.6788C348.965 66.326 348.612 66.326 348.612 65.9732C348.612 65.6204 348.965 65.6204 348.965 65.2676C351.44 62.798 353.915 60.6812 356.39 58.2116C364.876 50.0973 373.361 42.3357 381.847 34.2213C382.2 33.8685 382.2 33.8685 382.554 33.5157C382.554 33.8685 382.907 33.8685 382.907 34.2213C386.089 39.1605 388.211 44.4525 389.979 50.0973C391.039 53.6252 391.746 56.8004 392.454 60.3284C392.807 62.4452 393.161 64.562 393.161 66.6788C393.161 68.7956 393.514 71.2651 393.514 73.3819C393.514 75.8515 393.161 77.9683 393.161 80.4379C392.454 86.4355 391.039 92.0802 388.918 97.725C382.907 114.307 370.886 128.066 355.683 136.533C349.673 139.708 343.308 142.178 336.591 143.589C334.469 143.942 331.994 144.294 329.873 144.647C326.691 145 323.863 145 320.68 145C319.266 145 317.852 145 316.084 144.647C313.963 144.647 311.841 144.294 309.72 143.942C305.477 143.236 301.235 142.178 296.992 140.414C287.799 136.886 279.667 131.594 272.242 124.89C271.535 124.185 270.828 123.479 270.121 122.774C270.121 123.126 270.121 122.774 270.121 122.774Z" fill="#FF0D22"/>
<path d="M372.653 22.2263C372.653 22.5791 372.3 22.5791 372.653 22.2263C370.178 24.6959 367.35 27.1654 364.875 29.635C364.875 29.635 364.875 29.635 364.521 29.635L364.168 29.2822C358.157 21.5207 350.733 16.2287 341.186 13.4063C339.065 12.7007 336.944 12.3479 334.822 12.3479C331.994 11.9951 329.519 11.9951 326.69 11.9951C318.558 12.7007 311.134 15.1703 304.77 20.1095C296.284 26.4599 290.627 34.927 288.152 45.1582C287.445 47.2749 287.091 49.7445 287.091 51.8613C286.738 54.3309 286.738 56.4477 287.091 58.9173C287.799 66.326 289.92 73.0292 293.456 79.0268L293.809 79.3796C293.809 79.3796 293.809 79.3796 293.456 79.7324C282.142 90.3163 270.828 100.9 259.867 111.484C259.514 111.484 259.514 111.131 259.514 111.131C257.039 106.898 254.917 102.664 253.503 98.4307C252.089 94.1971 250.675 89.6107 249.967 85.3771C249.614 82.9075 249.26 80.7908 249.26 78.3212C248.907 75.146 248.907 72.3236 249.26 69.1484C249.26 66.6788 249.614 64.2092 249.967 61.7397C250.675 56.8005 252.089 51.8613 253.857 46.9221C259.867 30.6934 271.535 17.2871 286.738 8.81995C293.102 5.29197 299.82 2.82238 306.537 1.41119C308.659 1.05839 310.78 0.705596 312.901 0.352798C316.791 0 320.68 0 324.569 0C326.337 0 328.105 0.352798 329.872 0.352798C333.054 0.705596 336.237 1.41119 339.419 2.11679C349.318 4.93917 358.511 9.52555 366.289 15.8759C368.411 17.6399 370.532 19.4039 372.3 21.5207C372.3 21.8735 372.3 22.2263 372.653 22.2263Z" fill="#FF0D22"/>
</svg>
