<svg width="34" height="34" viewBox="0 0 34 34" fill="none" xmlns="http://www.w3.org/2000/svg">
<circle cx="17" cy="17" r="17" fill="#F2F2F2"/>
<path d="M25.2422 16.6189C25.0458 15.7659 24.3481 15.1367 23.5083 15.043C21.52 14.8209 19.5066 14.8199 17.503 14.8209C15.4986 14.8199 13.4856 14.8209 11.4967 15.043C10.6573 15.1369 9.95995 15.7661 9.76383 16.6189C9.48431 17.8336 9.48096 19.1595 9.48096 20.4103C9.48096 21.661 9.48096 22.9867 9.76048 24.2014C9.9566 25.0542 10.6539 25.6834 11.4937 25.7773C13.4822 25.9996 15.4952 26.0004 17.4994 25.9996C19.5038 26.0007 21.5164 25.9996 23.5055 25.7773C24.3449 25.6834 25.0427 25.0542 25.2388 24.2014C25.5181 22.9867 25.5196 21.661 25.5196 20.4103C25.5194 19.1593 25.5215 17.8336 25.2422 16.6189ZM14.0557 17.5604H12.8949V23.7287H11.8166V17.5604H10.677V16.55H14.0557V17.5604ZM16.9844 23.7289H16.0145V23.1453C15.6291 23.587 15.2633 23.8024 14.9069 23.8024C14.5944 23.8024 14.3795 23.6759 14.2825 23.4049C14.2296 23.2432 14.197 22.9871 14.197 22.6095V18.3799H15.1661V22.3181C15.1661 22.5452 15.1661 22.6632 15.1749 22.695C15.1981 22.8455 15.2717 22.9217 15.4016 22.9217C15.596 22.9217 15.7993 22.7719 16.0143 22.4679V18.3799H16.9842L16.9844 23.7289ZM20.6666 22.1234C20.6666 22.6181 20.6332 22.9746 20.5685 23.2013C20.439 23.5992 20.1798 23.8024 19.7943 23.8024C19.4494 23.8024 19.1166 23.6109 18.7925 23.2107V23.7291H17.8234V16.55H18.7925V18.8945C19.1055 18.5092 19.4378 18.3143 19.7943 18.3143C20.1798 18.3143 20.4392 18.5173 20.5685 18.9177C20.6337 19.1329 20.6666 19.4866 20.6666 19.9931V22.1234ZM24.3244 21.231H22.386V22.1792C22.386 22.6743 22.548 22.9215 22.8811 22.9215C23.1198 22.9215 23.2587 22.7918 23.314 22.5329C23.323 22.4803 23.3358 22.2649 23.3358 21.8762H24.3246V22.0176C24.3246 22.33 24.3127 22.5452 24.3039 22.642C24.2714 22.8566 24.1951 23.0512 24.0776 23.2226C23.8092 23.6111 23.4115 23.8026 22.9052 23.8026C22.3982 23.8026 22.0122 23.6201 21.732 23.2549C21.5265 22.9871 21.4209 22.5655 21.4209 21.9971V20.1236C21.4209 19.5518 21.5145 19.1336 21.7205 18.8633C22.0005 18.4972 22.3862 18.3149 22.8813 18.3149C23.3677 18.3149 23.7532 18.4972 24.0248 18.8633C24.2278 19.1336 24.3248 19.5518 24.3248 20.1236V21.231H24.3244Z" fill="#929292"/>
<path d="M22.8726 19.187C22.5486 19.187 22.3862 19.4345 22.3862 19.929V20.4239H23.3553V19.929C23.3551 19.4345 23.1931 19.187 22.8726 19.187Z" fill="#929292"/>
<path d="M19.2759 19.187C19.1162 19.187 18.9545 19.2624 18.7925 19.4227V22.6829C18.9542 22.8451 19.1162 22.9218 19.2759 22.9218C19.5554 22.9218 19.6975 22.6829 19.6975 22.1999V19.9168C19.6975 19.4345 19.5554 19.187 19.2759 19.187Z" fill="#929292"/>
<path d="M19.817 14.3281C20.1742 14.3281 20.546 14.111 20.9359 13.6643V14.2539H21.9155V8.84814H20.9359V12.9798C20.7188 13.2865 20.5131 13.4382 20.3171 13.4382C20.186 13.4382 20.1089 13.3607 20.0875 13.2088C20.0756 13.1767 20.0756 13.0575 20.0756 12.8281V8.84814H19.0991V13.1227C19.0991 13.5044 19.1318 13.7628 19.1859 13.9264C19.2843 14.2003 19.5016 14.3281 19.817 14.3281Z" fill="#929292"/>
<path d="M12.9979 11.316V14.2539H14.0842V11.316L15.3908 7H14.2924L13.5513 9.84863L12.7802 7H11.6372C11.8662 7.6724 12.1045 8.34815 12.3335 9.02117C12.6819 10.0328 12.8994 10.7955 12.9979 11.316Z" fill="#929292"/>
<path d="M16.8465 14.3281C17.3372 14.3281 17.7186 14.1435 17.9891 13.7747C18.1946 13.5042 18.2931 13.078 18.2931 12.5034V10.6105C18.2931 10.0326 18.1948 9.61017 17.9891 9.33714C17.7186 8.96732 17.3374 8.78271 16.8465 8.78271C16.3582 8.78271 15.9771 8.96732 15.706 9.33714C15.4979 9.61017 15.3994 10.0326 15.3994 10.6105V12.5034C15.3994 13.078 15.4979 13.5042 15.706 13.7747C15.9769 14.1435 16.3582 14.3281 16.8465 14.3281ZM16.379 10.4142C16.379 9.91399 16.5307 9.66465 16.8465 9.66465C17.1622 9.66465 17.3135 9.91378 17.3135 10.4142V12.688C17.3135 13.1882 17.1622 13.4384 16.8465 13.4384C16.5307 13.4384 16.379 13.1882 16.379 12.688V10.4142Z" fill="#929292"/>
</svg>
