<svg width="34" height="34" viewBox="0 0 34 34" fill="none" xmlns="http://www.w3.org/2000/svg">
<circle cx="17" cy="17" r="17" fill="#F2F2F2"/>
<path d="M22.9758 10.1554C22.8005 10.163 22.6298 10.2118 22.4759 10.2735C22.3236 10.3347 21.4465 10.709 20.1514 11.2628C18.8562 11.8165 17.1726 12.5376 15.5037 13.2526C12.1659 14.6827 8.8859 16.0897 8.8859 16.0897L8.90981 16.0806C8.90981 16.0806 8.71185 16.1468 8.51114 16.2866C8.41078 16.3565 8.30282 16.4468 8.21442 16.5784C8.12602 16.71 8.06139 16.8965 8.08575 17.0938C8.17129 17.7867 8.88942 17.9832 8.88942 17.9832L8.89223 17.9847L12.0971 19.0815C12.1788 19.3541 13.0691 22.3257 13.265 22.955C13.3731 23.303 13.4744 23.5037 13.58 23.6406C13.6328 23.7091 13.6882 23.7621 13.7494 23.8009C13.7737 23.8163 13.7993 23.8279 13.8247 23.8382C13.8252 23.8384 13.8255 23.8379 13.8261 23.8382C13.8292 23.8395 13.8321 23.8397 13.8352 23.841L13.8268 23.8389C13.8326 23.8412 13.8385 23.8452 13.8443 23.8473C13.8558 23.8513 13.8628 23.8512 13.8774 23.8543C14.2444 23.9825 14.5482 23.7447 14.5482 23.7447L14.5608 23.7348L16.5296 21.9088L19.7246 24.4L19.7647 24.4182C20.3239 24.6666 20.8296 24.528 21.1097 24.3001C21.3898 24.0722 21.5 23.7784 21.5 23.7784L21.5119 23.7475L23.8597 11.511C23.9197 11.2372 23.9283 11.0006 23.8716 10.7868C23.815 10.5729 23.6773 10.3871 23.5046 10.284C23.3319 10.181 23.1512 10.1477 22.9758 10.1554ZM22.9948 10.8873C23.066 10.884 23.1188 10.8922 23.1354 10.9021C23.1521 10.912 23.1595 10.9107 23.1755 10.971C23.1915 11.0313 23.2001 11.1583 23.1565 11.357L23.1551 11.3612L20.8207 23.5267C20.8152 23.5389 20.7666 23.6515 20.6555 23.7418C20.5422 23.834 20.4162 23.906 20.0818 23.7657L16.5879 21.0411L16.4895 20.9638L16.4874 20.9659L15.4425 20.1819L21.3143 13.2737C21.3595 13.2208 21.3883 13.1559 21.3973 13.0869C21.4063 13.0179 21.3952 12.9478 21.3652 12.8851C21.3352 12.8223 21.2877 12.7695 21.2284 12.7332C21.1691 12.6969 21.1005 12.6785 21.031 12.6803C20.963 12.682 20.897 12.703 20.8404 12.7407L12.3439 18.4051L9.13411 17.3061C9.13411 17.3061 8.81538 17.1288 8.80012 17.0052C8.79928 16.9984 8.79551 17.0046 8.81208 16.9799C8.82864 16.9552 8.87027 16.9136 8.92247 16.8772C9.02686 16.8045 9.14606 16.7605 9.14606 16.7605L9.15801 16.7563L9.16997 16.7514C9.16997 16.7514 12.4501 15.3442 15.7878 13.9143C17.4566 13.1993 19.1399 12.4787 20.4347 11.9251C21.7292 11.3717 22.6646 10.9733 22.7438 10.9414C22.834 10.9053 22.9236 10.8906 22.9948 10.8873ZM19.1009 14.7657L14.648 20.0047L14.6459 20.0068C14.639 20.0152 14.6324 20.0239 14.6262 20.0329C14.6192 20.0426 14.6126 20.0527 14.6065 20.0631C14.5815 20.1056 14.5655 20.1527 14.5594 20.2016C14.5594 20.2025 14.5594 20.2035 14.5594 20.2044L13.9793 22.813C13.9697 22.7848 13.9629 22.7745 13.9526 22.7413V22.7406C13.7684 22.1486 12.9284 19.3461 12.8122 18.9585L19.1009 14.7657ZM15.1507 20.8632L15.9509 21.4637L14.7753 22.5536L15.1507 20.8632Z" fill="#929292"/>
</svg>
